<svg width="113" height="32" viewBox="0 0 113 32" fill="none" xmlns="http://www.w3.org/2000/svg">
<g clip-path="url(#clip0_18972_2709)">
<path d="M0 16C0 11.7565 1.68571 7.68687 4.68629 4.68629C7.68687 1.68571 11.7565 0 16 0C20.2435 0 24.3131 1.68571 27.3137 4.68629C30.3143 7.68687 32 11.7565 32 16C32 20.2435 30.3143 24.3131 27.3137 27.3137C24.3131 30.3143 20.2435 32 16 32C11.7565 32 7.68687 30.3143 4.68629 27.3137C1.68571 24.3131 0 20.2435 0 16ZM0.599562 16C0.604196 20.083 2.22822 23.9975 5.11536 26.8846C8.0025 29.7718 11.917 31.3958 16 31.4004C20.083 31.3958 23.9975 29.7718 26.8846 26.8846C29.7718 23.9975 31.3958 20.083 31.4004 16C31.3958 11.917 29.7718 8.0025 26.8846 5.11536C23.9975 2.22822 20.083 0.604196 16 0.599562C11.917 0.604196 8.0025 2.22822 5.11536 5.11536C2.22822 8.0025 0.604196 11.917 0.599562 16Z" fill="white"/>
<path d="M16.0312 30.1707C23.7632 30.1707 30.0312 23.8263 30.0312 16C30.0312 8.17377 23.7632 1.82935 16.0312 1.82935C8.29926 1.82935 2.03125 8.17377 2.03125 16C2.03125 23.8263 8.29926 30.1707 16.0312 30.1707Z" fill="white"/>
<path d="M29.9677 13.6324C29.1868 14.2842 28.2703 14.7537 27.285 15.0066C25.5345 15.4442 22.9655 15.6543 19.6789 14.7528C16.3922 13.8512 13.6176 11.3348 13.6176 11.3348C14.8608 11.9976 16.1848 12.4963 17.5563 12.8184C19.3594 13.256 21.1669 13.3961 24.0684 12.4333C25.7314 11.8775 27.4207 10.4946 28.5542 9.41797C27.3534 7.12748 25.5485 5.20941 23.3351 3.8717C21.1218 2.53399 18.5845 1.82768 15.9984 1.82935C15.2169 1.83005 14.4368 1.89445 13.6658 2.02191C13.4798 3.11995 13.1609 4.19128 12.7161 5.21228C11.9663 6.8041 10.9889 8.27834 9.81455 9.58865C10.4656 8.20885 11.0255 6.78786 11.4907 5.33482C11.7069 4.40588 11.7646 3.44709 11.6614 2.49893C9.86427 3.08055 8.20107 4.01441 6.76888 5.24596C5.3367 6.47752 4.16426 7.98208 3.32002 9.6718C5.26596 10.188 7.00802 11.2858 8.31346 12.8184C7.10134 12.1749 5.82715 11.6558 4.5104 11.2692C3.92415 11.1134 3.32229 11.0238 2.71609 11.0022C1.62919 13.8855 1.51111 17.0444 2.37971 20.0008C3.24831 22.9572 5.05631 25.5502 7.53009 27.3873C7.35066 25.3217 7.26751 22.8709 7.64825 20.9366C8.35722 17.3261 11.3857 14.1051 11.3857 14.1051C10.1472 16.6521 10.0728 16.5383 9.63512 18.8753C9.26401 21.177 9.67217 23.5366 10.7949 25.5799C11.7227 27.1948 13.4207 28.9847 14.541 30.0963C15.0049 30.1401 15.4732 30.1663 15.9458 30.1663C18.0114 30.1751 20.0539 29.7319 21.9301 28.8678C23.8062 28.0037 25.4707 26.7397 26.8067 25.1644C28.1427 23.589 29.1179 21.7405 29.664 19.7484C30.21 17.7563 30.3137 15.6688 29.9677 13.6324Z" fill="url(#paint0_radial_18972_2709)"/>
<path d="M42.3055 16.709C42.3498 16.7094 42.3934 16.7194 42.4335 16.7383C42.4735 16.7572 42.509 16.7845 42.5375 16.8184L43.1808 17.5055C42.6916 18.0677 42.0851 18.5159 41.404 18.8184C40.6055 19.1541 39.7446 19.3152 38.8788 19.2911C38.0811 19.3041 37.2891 19.1552 36.5506 18.8534C35.8728 18.5707 35.2638 18.1453 34.765 17.6062C34.2576 17.0477 33.8677 16.3928 33.6184 15.6806C33.3395 14.8879 33.2017 14.0525 33.2114 13.2123C33.2061 12.3698 33.3544 11.5333 33.6491 10.744C33.9125 10.0264 34.319 9.36985 34.8438 8.81404C35.363 8.27184 35.9909 7.84533 36.6863 7.5624C37.4401 7.2608 38.2464 7.11203 39.0582 7.12477C39.8262 7.10971 40.5895 7.24808 41.3033 7.53177C41.9361 7.79415 42.5159 8.16931 43.0145 8.63899L42.4543 9.3786C42.4222 9.43238 42.3789 9.47864 42.3274 9.51426C42.2642 9.55246 42.191 9.57076 42.1173 9.56678C41.981 9.55226 41.8525 9.49567 41.7497 9.40485C41.569 9.27248 41.3805 9.15118 41.1852 9.04162C40.5246 8.67587 39.7779 8.49448 39.0232 8.51645C38.4445 8.50903 37.8701 8.61766 37.334 8.83593C36.8334 9.04479 36.3851 9.36159 36.021 9.76372C35.6321 10.1924 35.3343 10.6956 35.1458 11.2429C34.9328 11.8773 34.8292 12.5432 34.8394 13.2123C34.8281 13.8882 34.9363 14.5608 35.1589 15.1992C35.3505 15.7437 35.648 16.2449 36.0342 16.674C36.3991 17.073 36.8473 17.3867 37.3471 17.593C37.8617 17.8057 38.4139 17.9129 38.9707 17.9081C39.2912 17.9107 39.6115 17.8902 39.9291 17.8469C40.1978 17.8087 40.4618 17.7427 40.7169 17.6499C40.9536 17.5636 41.1797 17.4505 41.3908 17.313C41.6122 17.1714 41.8215 17.0119 42.0167 16.8359C42.0938 16.7592 42.1968 16.7139 42.3055 16.709Z" fill="white"/>
<path d="M56.1547 13.2167C56.1596 14.0549 56.0112 14.8869 55.7171 15.6718C55.4523 16.3885 55.0443 17.0437 54.518 17.5974C53.9934 18.1413 53.3595 18.5679 52.658 18.8491C51.1092 19.4475 49.3929 19.4475 47.844 18.8491C47.1443 18.567 46.512 18.1405 45.9884 17.5974C45.4623 17.0435 45.0543 16.3884 44.7893 15.6718C44.4952 14.8869 44.3469 14.0549 44.3517 13.2167C44.3469 12.3785 44.4952 11.5464 44.7893 10.7615C45.0552 10.0441 45.463 9.3877 45.9884 8.83155C46.5115 8.28567 47.1438 7.8562 47.844 7.57115C49.3919 6.96717 51.1102 6.96717 52.658 7.57115C53.3599 7.85543 53.9938 8.28496 54.518 8.83155C55.0434 9.3877 55.4512 10.0441 55.7171 10.7615C56.0112 11.5464 56.1596 12.3785 56.1547 13.2167ZM54.5005 13.2167C54.5106 12.5483 54.4101 11.8828 54.2029 11.2473C54.0242 10.7026 53.7352 10.2005 53.3539 9.77246C52.9898 9.37034 52.5415 9.05354 52.041 8.84467C50.9147 8.40824 49.6661 8.40824 48.5399 8.84467C48.0398 9.05454 47.5917 9.3712 47.2269 9.77246C46.8431 10.1994 46.5524 10.7017 46.3736 11.2473C46.1664 11.8828 46.0658 12.5483 46.076 13.2167C46.0656 13.8836 46.1661 14.5477 46.3736 15.1817C46.5531 15.7256 46.8437 16.2264 47.2269 16.6521C47.5911 17.053 48.0395 17.3683 48.5399 17.5755C49.6671 18.0065 50.9137 18.0065 52.041 17.5755C52.5419 17.3693 52.9905 17.0539 53.3539 16.6521C53.7347 16.2254 54.0237 15.7248 54.2029 15.1817C54.4103 14.5477 54.5109 13.8836 54.5005 13.2167Z" fill="white"/>
<path d="M68.4443 7.25607V19.1729H67.639C67.5288 19.1768 67.4193 19.1543 67.3195 19.1073C67.2202 19.0516 67.1337 18.9755 67.0657 18.8841L60.1686 9.8994C60.1686 10.0394 60.1686 10.1751 60.1948 10.3064C60.2211 10.4377 60.1948 10.5646 60.1948 10.6784V19.1685H58.7812V7.25607H59.6128C59.6739 7.25123 59.7354 7.25123 59.7966 7.25607C59.8423 7.26408 59.8865 7.27883 59.9279 7.29984C59.971 7.32183 60.0108 7.34983 60.046 7.38299C60.0914 7.42522 60.1338 7.47055 60.1729 7.51866L67.0657 16.4902C67.0657 16.3458 67.0657 16.2057 67.0351 16.0526C67.0044 15.8994 67.0351 15.79 67.0351 15.6675V7.25607H68.4443Z" fill="white"/>
<path d="M77.8988 9.12038C77.8582 9.1935 77.8031 9.25754 77.7369 9.30857C77.6751 9.35063 77.6015 9.37207 77.5268 9.36983C77.404 9.35899 77.2877 9.31002 77.1942 9.22979C77.0658 9.13643 76.9068 9.03285 76.7172 8.91907C76.4975 8.79301 76.2658 8.68893 76.0257 8.60835C75.7105 8.50757 75.3806 8.46023 75.0498 8.4683C74.7273 8.46243 74.4062 8.51126 74.1001 8.61272C73.8459 8.69723 73.611 8.83108 73.4086 9.0066C73.2199 9.16612 73.0702 9.36672 72.971 9.59303C72.876 9.82333 72.8284 10.0704 72.8309 10.3195C72.8198 10.6146 72.9059 10.9052 73.076 11.1466C73.2514 11.3756 73.4719 11.5662 73.7237 11.7068C74.0142 11.8716 74.3207 12.0065 74.6384 12.1094L75.6843 12.4639C76.0403 12.5865 76.3889 12.7236 76.7303 12.8753C77.0619 13.0218 77.3701 13.2165 77.645 13.453C77.9196 13.6963 78.1403 13.9945 78.2927 14.3283C78.4671 14.7203 78.5509 15.1466 78.5377 15.5755C78.5409 16.0766 78.4503 16.5738 78.2708 17.0416C78.0991 17.4908 77.8335 17.8981 77.4918 18.2364C77.1325 18.5855 76.7048 18.8567 76.2358 19.0329C75.6945 19.2356 75.12 19.3351 74.5421 19.3261C73.8145 19.3309 73.0942 19.1817 72.4283 18.8884C71.8163 18.6237 71.2641 18.2382 70.8047 17.755L71.3342 16.9847C71.3783 16.9241 71.4332 16.8722 71.4962 16.8315C71.5587 16.791 71.6317 16.7697 71.7062 16.7703C71.7945 16.7759 71.8794 16.8063 71.9513 16.8578C72.0417 16.9162 72.1453 16.9891 72.262 17.0766L72.6603 17.3698C72.8218 17.4827 72.9932 17.5808 73.1723 17.6631C73.3819 17.7574 73.6003 17.8307 73.8244 17.8819C74.0943 17.943 74.3704 17.9724 74.6471 17.9694C74.995 17.9754 75.3413 17.9221 75.6712 17.8118C75.952 17.7189 76.2111 17.5701 76.4327 17.3742C76.64 17.1828 76.8029 16.9483 76.9097 16.6871C77.0218 16.409 77.0783 16.1117 77.076 15.8118C77.087 15.5017 77.0014 15.1959 76.8309 14.9366C76.653 14.683 76.4195 14.4735 76.1482 14.3239C75.8589 14.1591 75.5521 14.0269 75.2336 13.93L74.1876 13.5974C73.8326 13.4838 73.4835 13.3523 73.1417 13.2035C72.8074 13.0602 72.4985 12.8636 72.227 12.6215C71.9548 12.377 71.7358 12.079 71.5837 11.7462C71.2564 10.9287 71.2564 10.0166 71.5837 9.19916C71.7474 8.80536 71.9902 8.44937 72.297 8.1532C72.6304 7.83603 73.023 7.58768 73.4524 7.42235C73.9552 7.23083 74.4899 7.13724 75.0279 7.14664C75.6476 7.13856 76.2633 7.2454 76.8441 7.46174C77.3819 7.66684 77.873 7.97788 78.2883 8.3764L77.8988 9.12038Z" fill="white"/>
<path d="M88.5276 17.8599V19.1728H81.1797V7.25598H88.5232V8.56889H82.7902V12.5076H87.4291V13.7724H82.7902V17.838L88.5276 17.8599Z" fill="white"/>
<path d="M99.9181 19.1729H98.4695C98.3406 19.1808 98.212 19.1532 98.0978 19.093C97.9836 19.0328 97.8881 18.9423 97.8218 18.8315L94.7496 14.5733C94.6724 14.4551 94.5691 14.3563 94.4476 14.2845C94.289 14.2165 94.1166 14.1865 93.9443 14.197H92.7233V19.1729H91.1172V7.25605H94.487C95.1449 7.24433 95.8013 7.32087 96.4389 7.48362C96.9329 7.60857 97.3961 7.83348 97.7999 8.14445C98.1466 8.42099 98.4176 8.78083 98.5877 9.1904C98.7647 9.62508 98.8525 10.0909 98.8459 10.5602C98.8486 10.9628 98.7805 11.3628 98.6445 11.7418C98.5141 12.1027 98.3183 12.4365 98.0669 12.7265C97.8043 13.0259 97.4919 13.2776 97.1434 13.4705C96.7567 13.684 96.341 13.8403 95.9093 13.9344C96.1244 14.0597 96.3072 14.2335 96.4432 14.442L99.9181 19.1729ZM94.4126 13.046C94.8303 13.0526 95.2465 12.9951 95.6467 12.8753C95.9754 12.7774 96.2806 12.6136 96.5439 12.3939C96.7803 12.1916 96.9661 11.9368 97.0866 11.6499C97.2119 11.3461 97.2744 11.0201 97.2704 10.6915C97.2908 10.3873 97.2379 10.0826 97.116 9.80309C96.9942 9.52359 96.807 9.27745 96.5701 9.08537C95.9489 8.68183 95.2127 8.49277 94.4739 8.54708H92.7233V13.0285L94.4126 13.046Z" fill="white"/>
<path d="M112.756 13.2167C112.761 14.0549 112.613 14.8869 112.319 15.6718C112.054 16.3885 111.646 17.0437 111.12 17.5974C110.595 18.1413 109.961 18.5679 109.26 18.8491C107.711 19.4475 105.994 19.4475 104.446 18.8491C103.746 18.567 103.114 18.1405 102.59 17.5974C102.064 17.0435 101.656 16.3884 101.391 15.6718C101.097 14.8869 100.948 14.0549 100.953 13.2167C100.948 12.3785 101.097 11.5464 101.391 10.7615C101.657 10.0441 102.065 9.3877 102.59 8.83155C103.113 8.28567 103.745 7.8562 104.446 7.57115C105.993 6.96717 107.712 6.96717 109.26 7.57115C109.962 7.85543 110.595 8.28496 111.12 8.83155C111.645 9.3877 112.053 10.0441 112.319 10.7615C112.613 11.5464 112.761 12.3785 112.756 13.2167ZM111.102 13.2167C111.112 12.5483 111.012 11.8828 110.804 11.2473C110.626 10.7026 110.337 10.2005 109.955 9.77246C109.591 9.37034 109.143 9.05354 108.643 8.84467C107.516 8.40824 106.268 8.40824 105.141 8.84467C104.641 9.05454 104.193 9.3712 103.829 9.77246C103.445 10.1994 103.154 10.7017 102.975 11.2473C102.768 11.8828 102.667 12.5483 102.678 13.2167C102.667 13.8836 102.768 14.5477 102.975 15.1817C103.155 15.7256 103.445 16.2264 103.829 16.6521C104.193 17.053 104.641 17.3683 105.141 17.5755C106.269 18.0065 107.515 18.0065 108.643 17.5755C109.143 17.3693 109.592 17.0539 109.955 16.6521C110.336 16.2254 110.625 15.7248 110.804 15.1817C111.012 14.5477 111.112 13.8836 111.102 13.2167Z" fill="white"/>
<path d="M34.922 23.5361V24.6301H36.213V24.9759H34.922V26.3238H34.4844V23.1947H36.4187V23.5404L34.922 23.5361Z" fill="white"/>
<path d="M37.3675 23.4136C37.3681 23.4498 37.3606 23.4857 37.3456 23.5187C37.3305 23.5512 37.3098 23.5808 37.2844 23.6062C37.258 23.6324 37.2268 23.6532 37.1925 23.6675C37.1579 23.6822 37.1207 23.6897 37.0831 23.6893C37.0469 23.6895 37.0111 23.682 36.978 23.6675C36.9451 23.6529 36.9154 23.6321 36.8905 23.6062C36.8665 23.5806 36.8473 23.551 36.8336 23.5187C36.8264 23.484 36.8264 23.4483 36.8336 23.4136C36.8263 23.3775 36.8263 23.3403 36.8336 23.3042C36.8458 23.2637 36.8667 23.2263 36.8949 23.1948C36.9198 23.1689 36.9495 23.1481 36.9824 23.1335C37.0171 23.1265 37.0528 23.1265 37.0874 23.1335C37.1235 23.1262 37.1607 23.1262 37.1968 23.1335C37.2312 23.1478 37.2624 23.1686 37.2887 23.1948C37.3148 23.2213 37.3356 23.2525 37.35 23.2867C37.3662 23.3269 37.3723 23.3705 37.3675 23.4136ZM37.2844 24.1095V26.3239H36.8949V24.1095H37.2844Z" fill="white"/>
<path d="M38.292 24.4333C38.3392 24.3812 38.3904 24.333 38.4452 24.2889C38.4981 24.2454 38.5553 24.2073 38.6158 24.1751C38.6769 24.1428 38.7415 24.1178 38.8084 24.1007C38.88 24.0831 38.9535 24.0743 39.0272 24.0744C39.1368 24.0728 39.2455 24.0936 39.3467 24.1357C39.4363 24.1736 39.5158 24.2321 39.5786 24.3064C39.6426 24.3851 39.6903 24.4759 39.7187 24.5733C39.7517 24.6841 39.7679 24.7991 39.7668 24.9147V26.3283H39.3905V24.9147C39.3989 24.7756 39.3587 24.6379 39.2767 24.5252C39.2324 24.4772 39.178 24.4398 39.1175 24.4155C39.0569 24.3913 38.9917 24.3809 38.9266 24.3852C38.8132 24.3845 38.7017 24.4131 38.6027 24.4683C38.4986 24.5281 38.4054 24.605 38.327 24.6959V26.3283H37.9375V24.1094H38.1738C38.198 24.1081 38.2217 24.1159 38.2404 24.1314C38.259 24.1468 38.2712 24.1686 38.2745 24.1926L38.292 24.4333Z" fill="white"/>
<path d="M40.3084 24.4246C40.4233 24.3126 40.5585 24.2234 40.7067 24.162C40.8555 24.1023 41.0146 24.0726 41.175 24.0744C41.2874 24.0727 41.399 24.0935 41.5032 24.1357C41.5965 24.1737 41.6803 24.232 41.7483 24.3064C41.8157 24.3825 41.8664 24.472 41.8971 24.569C41.9323 24.6793 41.95 24.7945 41.9496 24.9103V26.3283H41.7745C41.7458 26.3359 41.7157 26.3359 41.687 26.3283C41.6625 26.3101 41.6454 26.2837 41.6388 26.2539L41.5951 26.0438C41.5408 26.0949 41.4838 26.1431 41.4244 26.1882C41.3699 26.2293 41.3112 26.2645 41.2493 26.2933C41.1863 26.3223 41.1203 26.3444 41.0524 26.3589C40.9761 26.3746 40.8983 26.382 40.8205 26.3808C40.7389 26.3815 40.6577 26.3697 40.5798 26.3458C40.5074 26.3229 40.4405 26.2857 40.3828 26.2364C40.3259 26.1856 40.2811 26.1228 40.2515 26.0526C40.2172 25.9694 40.2008 25.8799 40.2034 25.79C40.2042 25.7001 40.23 25.6122 40.2778 25.5361C40.3369 25.4456 40.4183 25.3717 40.5141 25.3217C40.6514 25.2487 40.7989 25.1971 40.9518 25.1685C41.157 25.1189 41.3666 25.0896 41.5776 25.081V24.906C41.5881 24.7673 41.5493 24.6294 41.4682 24.5165C41.427 24.471 41.3761 24.4356 41.3192 24.4129C41.2624 24.3901 41.201 24.3806 41.1399 24.3852C41.0583 24.3827 40.9768 24.3946 40.8992 24.4202C40.8304 24.4414 40.7642 24.4708 40.7023 24.5077L40.5798 24.5909C40.5505 24.6124 40.5154 24.6247 40.4791 24.6259C40.4563 24.6332 40.4318 24.6332 40.4091 24.6259C40.3898 24.6116 40.3735 24.5938 40.3609 24.5733L40.3084 24.4246ZM41.5776 25.3305C41.4309 25.3351 41.2847 25.3497 41.1399 25.3742C41.0332 25.3905 40.9288 25.4199 40.8292 25.4618C40.7628 25.4894 40.7041 25.533 40.6585 25.5887C40.6235 25.637 40.6051 25.6953 40.606 25.755C40.605 25.8076 40.6155 25.8599 40.6367 25.9081C40.6541 25.949 40.6811 25.985 40.7154 26.0132C40.7486 26.0415 40.7874 26.0623 40.8292 26.0744C40.8771 26.081 40.9257 26.081 40.9736 26.0744C41.0361 26.0819 41.0993 26.0819 41.1618 26.0744C41.2181 26.0607 41.2725 26.0401 41.3237 26.0132C41.3746 25.9871 41.423 25.9563 41.4682 25.9213C41.5163 25.8822 41.5617 25.8398 41.6038 25.7944L41.5776 25.3305Z" fill="white"/>
<path d="M42.8892 24.4333C42.9364 24.3812 42.9876 24.333 43.0423 24.2889C43.0953 24.2454 43.1525 24.2073 43.213 24.1751C43.2741 24.1428 43.3387 24.1178 43.4056 24.1007C43.4772 24.0831 43.5507 24.0743 43.6244 24.0744C43.734 24.0728 43.8427 24.0936 43.9439 24.1357C44.0335 24.1736 44.1129 24.2321 44.1758 24.3064C44.2398 24.3851 44.2874 24.4759 44.3159 24.5733C44.3489 24.6841 44.3651 24.7991 44.364 24.9147V26.3283H43.9745V24.9147C43.983 24.7756 43.9428 24.6379 43.8607 24.5252C43.8165 24.4772 43.7621 24.4398 43.7015 24.4155C43.641 24.3913 43.5757 24.3809 43.5106 24.3852C43.3973 24.3845 43.2857 24.4131 43.1868 24.4683C43.0827 24.5281 42.9895 24.605 42.9111 24.6959V26.3283H42.5391V24.1094H42.7754C42.7995 24.1081 42.8233 24.1159 42.842 24.1314C42.8606 24.1468 42.8728 24.1686 42.876 24.1926L42.8892 24.4333Z" fill="white"/>
<path d="M46.522 24.5076L46.4869 24.5427C46.4713 24.5477 46.4545 24.5477 46.4388 24.5427C46.4187 24.5354 46.4007 24.5234 46.3863 24.5076L46.29 24.4464C46.244 24.4212 46.1957 24.4006 46.1456 24.3851C45.9819 24.3402 45.808 24.351 45.6511 24.4157C45.5685 24.4532 45.4964 24.5103 45.441 24.582C45.382 24.6605 45.3389 24.7497 45.3141 24.8446C45.2842 24.9574 45.2695 25.0737 45.2703 25.1904C45.2679 25.3114 45.2826 25.4323 45.3141 25.5492C45.3406 25.6444 45.3852 25.7335 45.4454 25.8118C45.4988 25.8808 45.5678 25.9363 45.6467 25.9737C45.7304 26.0121 45.8216 26.0315 45.9136 26.0306C45.9939 26.0327 46.0738 26.0209 46.15 25.9956C46.2039 25.9773 46.2554 25.9523 46.3031 25.9212L46.4038 25.8468C46.4249 25.826 46.4529 25.8135 46.4826 25.8118C46.4969 25.8111 46.5112 25.8139 46.5241 25.82C46.5371 25.8261 46.5484 25.8353 46.557 25.8468L46.6664 25.9912C46.62 26.0497 46.5655 26.1013 46.5045 26.1444C46.4429 26.1865 46.3768 26.2218 46.3075 26.2494C46.2355 26.2779 46.1607 26.2984 46.0843 26.3107C46.0057 26.3174 45.9266 26.3174 45.848 26.3107C45.7159 26.3125 45.5848 26.2872 45.4629 26.2363C45.3441 26.1857 45.238 26.1095 45.1522 26.0131C45.0604 25.9084 44.9905 25.7864 44.9465 25.6543C44.8512 25.3478 44.8512 25.0197 44.9465 24.7133C44.9886 24.58 45.0571 24.4565 45.1478 24.3501C45.2383 24.2479 45.3504 24.1672 45.476 24.1138C45.6147 24.0565 45.7636 24.0282 45.9136 24.0306C46.0544 24.0277 46.1942 24.053 46.325 24.105C46.443 24.1554 46.55 24.2282 46.6401 24.3195L46.522 24.5076Z" fill="white"/>
<path d="M47.5706 23.4136C47.5712 23.4498 47.5637 23.4856 47.5488 23.5186C47.5336 23.5511 47.5129 23.5808 47.4875 23.6061C47.4612 23.6324 47.4299 23.6532 47.3956 23.6674C47.361 23.6822 47.3238 23.6896 47.2862 23.6893C47.25 23.6894 47.2142 23.682 47.1812 23.6674C47.1483 23.6529 47.1185 23.6321 47.0936 23.6061C47.0696 23.5805 47.0504 23.5509 47.0367 23.5186C47.0295 23.484 47.0295 23.4482 47.0367 23.4136C47.0294 23.3775 47.0294 23.3403 47.0367 23.3042C47.0497 23.2702 47.069 23.239 47.0936 23.2123C47.1185 23.1863 47.1483 23.1655 47.1812 23.151C47.2158 23.1439 47.2515 23.1439 47.2862 23.151C47.3223 23.1437 47.3595 23.1437 47.3956 23.151C47.4299 23.1652 47.4612 23.186 47.4875 23.2123C47.5136 23.2387 47.5343 23.2699 47.5488 23.3042C47.5638 23.3386 47.5713 23.376 47.5706 23.4136ZM47.4875 24.1094V26.3239H47.098V24.1094H47.4875Z" fill="white"/>
<path d="M48.0662 24.4246C48.1811 24.3126 48.3163 24.2234 48.4645 24.162C48.6133 24.1023 48.7724 24.0726 48.9328 24.0744C49.0452 24.0727 49.1568 24.0935 49.261 24.1357C49.3543 24.1737 49.4381 24.232 49.5061 24.3064C49.5735 24.3825 49.6242 24.472 49.6549 24.569C49.6901 24.6793 49.7078 24.7945 49.7074 24.9103V26.3283H49.5323C49.5036 26.3359 49.4735 26.3359 49.4448 26.3283C49.4203 26.3101 49.4032 26.2837 49.3967 26.2539L49.3529 26.0438C49.2986 26.0949 49.2416 26.1431 49.1822 26.1882C49.1277 26.2293 49.069 26.2645 49.0072 26.2933C48.9441 26.3223 48.8781 26.3444 48.8102 26.3589C48.7339 26.3746 48.6562 26.382 48.5783 26.3808C48.4967 26.3815 48.4155 26.3697 48.3376 26.3458C48.2652 26.3229 48.1983 26.2857 48.1406 26.2364C48.0837 26.1856 48.0389 26.1228 48.0093 26.0526C47.975 25.9694 47.9586 25.8799 47.9612 25.79C47.9621 25.7001 47.9878 25.6122 48.0356 25.5361C48.0947 25.4456 48.1761 25.3717 48.2719 25.3217C48.4092 25.2487 48.5568 25.1971 48.7096 25.1685C48.9197 25.124 49.1337 25.1005 49.3485 25.0985V24.9235C49.359 24.7848 49.3203 24.6469 49.2391 24.534C49.198 24.4885 49.1471 24.4531 49.0902 24.4304C49.0333 24.4076 48.972 24.3981 48.9109 24.4027C48.8292 24.4002 48.7478 24.4121 48.6702 24.4377C48.6121 24.4596 48.5563 24.4875 48.5039 24.5208L48.3813 24.604C48.3521 24.6256 48.317 24.6378 48.2807 24.639C48.2579 24.6464 48.2334 24.6464 48.2107 24.639C48.1914 24.6247 48.1751 24.6069 48.1625 24.5865L48.0662 24.4246ZM49.3266 25.3305C49.1799 25.3351 49.0337 25.3497 48.889 25.3742C48.7822 25.3905 48.6779 25.4199 48.5783 25.4618C48.5118 25.4894 48.4532 25.533 48.4076 25.5887C48.3726 25.637 48.3541 25.6953 48.3551 25.755C48.3541 25.8076 48.3645 25.8599 48.3857 25.9081C48.4031 25.949 48.4302 25.985 48.4645 26.0132C48.4976 26.0415 48.5364 26.0623 48.5783 26.0744C48.6262 26.081 48.6748 26.081 48.7227 26.0744C48.7852 26.0819 48.8484 26.0819 48.9109 26.0744C48.9672 26.0607 49.0215 26.0401 49.0728 26.0132C49.1237 25.9871 49.172 25.9563 49.2172 25.9213C49.2654 25.8822 49.3107 25.8398 49.3529 25.7944L49.3266 25.3305Z" fill="white"/>
<path d="M50.7001 23.1028V26.3282H50.3281V23.1028H50.7001Z" fill="white"/>
<path d="M53.9935 24.5076L53.9585 24.5427C53.9429 24.5477 53.926 24.5477 53.9104 24.5427C53.8809 24.5402 53.8532 24.5278 53.8316 24.5076L53.7353 24.4464C53.6894 24.4212 53.641 24.4006 53.5909 24.3851C53.4272 24.3402 53.2533 24.351 53.0964 24.4157C53.0138 24.4532 52.9417 24.5103 52.8863 24.582C52.8273 24.6605 52.7842 24.7497 52.7594 24.8446C52.7295 24.9574 52.7148 25.0737 52.7156 25.1904C52.7132 25.3114 52.7279 25.4323 52.7594 25.5492C52.7859 25.6444 52.8305 25.7335 52.8907 25.8118C52.9441 25.8808 53.0131 25.9363 53.092 25.9737C53.1757 26.0121 53.2669 26.0315 53.359 26.0306C53.4392 26.0327 53.5191 26.0209 53.5953 25.9956C53.6492 25.9773 53.7007 25.9523 53.7485 25.9212L53.8491 25.8468C53.8703 25.826 53.8983 25.8135 53.9279 25.8118C53.9422 25.8111 53.9565 25.8139 53.9695 25.82C53.9824 25.8261 53.9937 25.8353 54.0023 25.8468L54.1117 25.9912C54.0653 26.0497 54.0108 26.1013 53.9498 26.1444C53.8882 26.1865 53.8221 26.2218 53.7528 26.2494C53.6809 26.2779 53.606 26.2984 53.5296 26.3107C53.451 26.3174 53.3719 26.3174 53.2933 26.3107C53.1612 26.3125 53.0301 26.2872 52.9082 26.2363C52.7894 26.1857 52.6833 26.1095 52.5975 26.0131C52.5057 25.9084 52.4358 25.7864 52.3918 25.6543C52.2965 25.3478 52.2965 25.0197 52.3918 24.7133C52.4339 24.58 52.5024 24.4565 52.5931 24.3501C52.6836 24.2479 52.7957 24.1672 52.9213 24.1138C53.06 24.0565 53.2089 24.0282 53.359 24.0306C53.4997 24.0277 53.6395 24.053 53.7703 24.105C53.8883 24.1554 53.9953 24.2282 54.0854 24.3195L53.9935 24.5076Z" fill="white"/>
<path d="M54.9442 23.1028V26.3282H54.5547V23.1028H54.9442Z" fill="white"/>
<path d="M55.5116 24.4246C55.6264 24.3126 55.7616 24.2234 55.9098 24.162C56.0586 24.1023 56.2178 24.0726 56.3781 24.0744C56.4905 24.0727 56.6021 24.0935 56.7063 24.1357C56.7997 24.1737 56.8834 24.232 56.9514 24.3064C57.0188 24.3825 57.0695 24.472 57.1002 24.569C57.1354 24.6793 57.1532 24.7945 57.1527 24.9103V26.3283H56.9776C56.949 26.3359 56.9188 26.3359 56.8901 26.3283C56.8656 26.3101 56.8486 26.2837 56.842 26.2539L56.7982 26.0438C56.7439 26.0949 56.6869 26.1431 56.6275 26.1882C56.573 26.2293 56.5143 26.2645 56.4525 26.2933C56.3894 26.3223 56.3234 26.3444 56.2555 26.3589C56.1793 26.3746 56.1015 26.382 56.0236 26.3808C55.942 26.3815 55.8609 26.3697 55.7829 26.3458C55.7106 26.3229 55.6436 26.2857 55.586 26.2364C55.529 26.1856 55.4842 26.1228 55.4547 26.0526C55.4203 25.9694 55.4039 25.8799 55.4065 25.79C55.4074 25.7001 55.4331 25.6122 55.4809 25.5361C55.54 25.4456 55.6214 25.3717 55.7172 25.3217C55.8545 25.2487 56.0021 25.1971 56.1549 25.1685C56.365 25.124 56.579 25.1005 56.7938 25.0985V24.9235C56.8043 24.7848 56.7656 24.6469 56.6844 24.534C56.6433 24.4885 56.5924 24.4531 56.5355 24.4304C56.4786 24.4076 56.4173 24.3981 56.3562 24.4027C56.2745 24.4002 56.1931 24.4121 56.1155 24.4377C56.0574 24.4596 56.0016 24.4875 55.9492 24.5208L55.8267 24.604C55.7974 24.6256 55.7623 24.6378 55.726 24.639C55.7032 24.6464 55.6787 24.6464 55.656 24.639C55.6367 24.6247 55.6204 24.6069 55.6078 24.5865L55.5116 24.4246ZM56.7719 25.3305C56.6252 25.3351 56.479 25.3497 56.3343 25.3742C56.2275 25.3905 56.1232 25.4199 56.0236 25.4618C55.9571 25.4894 55.8985 25.533 55.8529 25.5887C55.8179 25.637 55.7994 25.6953 55.8004 25.755C55.7994 25.8076 55.8098 25.8599 55.831 25.9081C55.8484 25.949 55.8755 25.985 55.9098 26.0132C55.9429 26.0415 55.9817 26.0623 56.0236 26.0744C56.0715 26.081 56.1201 26.081 56.168 26.0744C56.2305 26.0819 56.2937 26.0819 56.3562 26.0744C56.4125 26.0607 56.4668 26.0401 56.5181 26.0132C56.569 25.9871 56.6173 25.9563 56.6625 25.9213C56.7107 25.8822 56.756 25.8398 56.7982 25.7944L56.7719 25.3305Z" fill="white"/>
<path d="M58.1157 24.5557C58.1745 24.4199 58.2626 24.2988 58.3739 24.2013C58.4799 24.1148 58.6136 24.0697 58.7503 24.0743C58.7954 24.0691 58.8409 24.0691 58.886 24.0743C58.9264 24.0838 58.9649 24.1001 58.9998 24.1225L58.9691 24.4113C58.9686 24.4194 58.9664 24.4272 58.9628 24.4345C58.9592 24.4417 58.9542 24.4481 58.9481 24.4534C58.942 24.4587 58.9349 24.4627 58.9273 24.4653C58.9196 24.4678 58.9115 24.4688 58.9035 24.4682H58.8116C58.7679 24.4635 58.7239 24.4635 58.6803 24.4682C58.6162 24.467 58.5525 24.4773 58.4921 24.4988C58.4384 24.5197 58.3893 24.5509 58.3477 24.5908C58.3027 24.6346 58.2644 24.6847 58.2339 24.7395C58.1977 24.8039 58.1669 24.8713 58.142 24.9409V26.3413H57.7656V24.1094H57.9888C58.0203 24.1065 58.0517 24.1159 58.0764 24.1356C58.0963 24.159 58.1086 24.1881 58.1114 24.2188L58.1157 24.5557Z" fill="white"/>
<path d="M59.8363 23.4136C59.8368 23.4498 59.8294 23.4856 59.8144 23.5186C59.7993 23.5511 59.7785 23.5808 59.7531 23.6061C59.7268 23.6324 59.6956 23.6532 59.6612 23.6674C59.6267 23.6822 59.5894 23.6896 59.5518 23.6893C59.5157 23.6894 59.4799 23.682 59.4468 23.6674C59.4139 23.6529 59.3842 23.6321 59.3593 23.6061C59.3353 23.5805 59.316 23.5509 59.3024 23.5186C59.2952 23.484 59.2952 23.4482 59.3024 23.4136C59.295 23.3775 59.295 23.3403 59.3024 23.3042C59.3154 23.2702 59.3347 23.239 59.3593 23.2123C59.3842 23.1863 59.4139 23.1655 59.4468 23.151C59.4814 23.1439 59.5172 23.1439 59.5518 23.151C59.5879 23.1437 59.6251 23.1437 59.6612 23.151C59.6956 23.1652 59.7268 23.186 59.7531 23.2123C59.7792 23.2387 59.8 23.2699 59.8144 23.3042C59.8294 23.3386 59.8369 23.376 59.8363 23.4136ZM59.7531 24.1094V26.3239H59.3636V24.1094H59.7531Z" fill="white"/>
<path d="M61.0729 26.3632C60.9995 26.3682 60.9258 26.3579 60.8565 26.3331C60.7873 26.3082 60.7239 26.2693 60.6703 26.2188C60.6185 26.1592 60.5794 26.0896 60.5553 26.0144C60.5312 25.9391 60.5227 25.8598 60.5303 25.7812V24.4245H60.2633C60.2436 24.4319 60.2218 24.4319 60.202 24.4245C60.1939 24.4158 60.1877 24.4054 60.184 24.3941C60.1802 24.3827 60.1789 24.3707 60.1802 24.3588V24.2057L60.5434 24.1619L60.6353 23.4792C60.6396 23.4588 60.6503 23.4404 60.6659 23.4267C60.6857 23.4193 60.7075 23.4193 60.7272 23.4267H60.9242V24.1925H61.5631V24.477H60.9242V25.7899C60.9182 25.8644 60.9417 25.9383 60.9898 25.9956C61.0126 26.0187 61.0399 26.0368 61.07 26.0488C61.1002 26.0609 61.1324 26.0666 61.1648 26.0656C61.1996 26.0717 61.2351 26.0717 61.2699 26.0656L61.3487 26.0306L61.4056 25.9956C61.4184 25.9921 61.432 25.9921 61.4449 25.9956C61.4567 25.9958 61.4682 25.9992 61.4782 26.0053C61.4882 26.0115 61.4963 26.0202 61.5018 26.0306L61.6156 26.2188C61.5446 26.2842 61.4613 26.3348 61.3705 26.3676C61.2719 26.3841 61.1711 26.3827 61.0729 26.3632Z" fill="white"/>
<path d="M63.8694 24.1095L62.6309 26.9804C62.6199 27.0068 62.6035 27.0306 62.5828 27.0504C62.5563 27.07 62.5237 27.0793 62.4909 27.0766H62.202L62.609 26.2014L61.7031 24.1095H62.0401C62.0687 24.1084 62.0967 24.1177 62.1189 24.1357C62.1367 24.151 62.1503 24.1706 62.1583 24.1926L62.7491 25.5887C62.7723 25.6515 62.7913 25.7158 62.806 25.7812C62.8264 25.7112 62.8483 25.647 62.8716 25.5887L63.4537 24.1926C63.4623 24.1697 63.4775 24.1499 63.4974 24.1357C63.5179 24.1212 63.5424 24.1135 63.5675 24.1138L63.8694 24.1095Z" fill="white"/>
<path d="M65.1756 24.4246C65.2905 24.3126 65.4257 24.2234 65.5739 24.162C65.7227 24.1023 65.8818 24.0726 66.0421 24.0744C66.1545 24.0727 66.2662 24.0935 66.3704 24.1357C66.4637 24.1737 66.5474 24.232 66.6154 24.3064C66.6829 24.3825 66.7336 24.472 66.7642 24.569C66.7995 24.6793 66.8172 24.7945 66.8168 24.9103V26.3283H66.6417C66.613 26.3359 66.5829 26.3359 66.5542 26.3283C66.5297 26.3101 66.5126 26.2837 66.506 26.2539L66.4623 26.0438C66.408 26.0949 66.351 26.1431 66.2916 26.1882C66.2371 26.2293 66.1784 26.2645 66.1165 26.2933C66.0535 26.3223 65.9875 26.3444 65.9196 26.3589C65.8433 26.3746 65.7655 26.382 65.6877 26.3808C65.6061 26.3815 65.5249 26.3697 65.447 26.3458C65.3746 26.3229 65.3076 26.2857 65.25 26.2364C65.1931 26.1856 65.1483 26.1228 65.1187 26.0526C65.0844 25.9694 65.068 25.8799 65.0706 25.79C65.0714 25.7001 65.0972 25.6122 65.145 25.5361C65.2041 25.4456 65.2854 25.3717 65.3813 25.3217C65.5186 25.2487 65.6661 25.1971 65.8189 25.1685C66.0291 25.124 66.2431 25.1005 66.4579 25.0985V24.9235C66.4684 24.7848 66.4297 24.6469 66.3485 24.534C66.3074 24.4885 66.2564 24.4531 66.1996 24.4304C66.1427 24.4076 66.0814 24.3981 66.0203 24.4027C65.9386 24.4002 65.8571 24.4121 65.7796 24.4377C65.7214 24.4596 65.6657 24.4875 65.6133 24.5208L65.4907 24.604C65.4615 24.6256 65.4264 24.6378 65.3901 24.639C65.3673 24.6464 65.3428 24.6464 65.32 24.639C65.3008 24.6247 65.2845 24.6069 65.2719 24.5865L65.1756 24.4246ZM66.436 25.3305C66.2893 25.3351 66.1431 25.3497 65.9984 25.3742C65.8916 25.3905 65.7872 25.4199 65.6877 25.4618C65.6212 25.4894 65.5626 25.533 65.517 25.5887C65.4819 25.637 65.4635 25.6953 65.4645 25.755C65.4634 25.8076 65.4739 25.8599 65.4951 25.9081C65.5125 25.949 65.5395 25.985 65.5739 26.0132C65.607 26.0415 65.6458 26.0623 65.6877 26.0744C65.7356 26.081 65.7842 26.081 65.8321 26.0744C65.8946 26.0819 65.9578 26.0819 66.0203 26.0744C66.0765 26.0607 66.1309 26.0401 66.1822 26.0132C66.2331 25.9871 66.2814 25.9563 66.3266 25.9213C66.3748 25.8822 66.4201 25.8398 66.4623 25.7944L66.436 25.3305Z" fill="white"/>
<path d="M67.7748 24.4333C67.822 24.3812 67.8732 24.333 67.928 24.2889C67.981 24.2454 68.0381 24.2073 68.0987 24.1751C68.1597 24.1428 68.2243 24.1178 68.2912 24.1007C68.3628 24.0831 68.4363 24.0743 68.51 24.0744C68.6196 24.0728 68.7283 24.0936 68.8295 24.1357C68.9191 24.1736 68.9986 24.2321 69.0615 24.3064C69.1255 24.3851 69.1731 24.4759 69.2015 24.5733C69.2345 24.6841 69.2508 24.7991 69.2496 24.9147V26.3283H68.8601V24.9147C68.8686 24.7756 68.8284 24.6379 68.7464 24.5252C68.7021 24.4772 68.6477 24.4398 68.5872 24.4155C68.5266 24.3913 68.4614 24.3809 68.3962 24.3852C68.2829 24.3845 68.1714 24.4131 68.0724 24.4683C67.9683 24.5281 67.8751 24.605 67.7967 24.6959V26.3283H67.3984V24.1094H67.6348C67.6589 24.1081 67.6827 24.1159 67.7013 24.1314C67.72 24.1468 67.7322 24.1686 67.7354 24.1926L67.7748 24.4333Z" fill="white"/>
<path d="M71.6814 23.1028V26.3282H71.4494C71.4252 26.3324 71.4002 26.3277 71.3792 26.3148C71.3583 26.3019 71.3428 26.2817 71.3356 26.2581L71.3006 25.9912C71.2098 26.1015 71.1002 26.1949 70.9768 26.2669C70.8435 26.3419 70.692 26.3783 70.5391 26.3719C70.4198 26.3732 70.3017 26.3478 70.1934 26.2975C70.0899 26.2482 69.9999 26.1746 69.9308 26.0831C69.8531 25.9767 69.7967 25.8564 69.7645 25.7286C69.7218 25.5688 69.7012 25.4039 69.7033 25.2384C69.7039 25.0902 69.726 24.9428 69.7689 24.8008C69.8084 24.6677 69.8722 24.5431 69.9571 24.4332C70.0381 24.3299 70.1413 24.2461 70.2591 24.1881C70.3844 24.1273 70.5224 24.0973 70.6617 24.1006C70.7821 24.0976 70.9018 24.1215 71.0118 24.1706C71.1094 24.2176 71.1971 24.283 71.27 24.3632V23.1028H71.6814ZM71.2919 24.6389C71.2317 24.5515 71.1504 24.4808 71.0556 24.4332C70.966 24.3939 70.8689 24.3745 70.7711 24.3763C70.6805 24.3718 70.5901 24.3893 70.5078 24.4274C70.4255 24.4656 70.3536 24.5231 70.2985 24.5951C70.1765 24.7817 70.1181 25.0028 70.1321 25.2253C70.1293 25.3503 70.141 25.4751 70.1672 25.5973C70.1868 25.6882 70.224 25.7744 70.2766 25.8511C70.3224 25.9144 70.3844 25.9643 70.456 25.9956C70.5309 26.0262 70.6114 26.0411 70.6923 26.0393C70.8106 26.0424 70.9274 26.012 71.0293 25.9518C71.1314 25.8873 71.2205 25.8042 71.2919 25.7067V24.6389Z" fill="white"/>
<path d="M75.2149 26.0175C75.1649 26.0774 75.1058 26.1291 75.0398 26.1707C74.9745 26.2069 74.9056 26.2363 74.8342 26.2582C74.7574 26.2856 74.6783 26.3061 74.5978 26.3195C74.5177 26.3262 74.4372 26.3262 74.3571 26.3195C74.2075 26.3225 74.0587 26.2957 73.9195 26.2407C73.7933 26.1901 73.6797 26.1124 73.5869 26.0131C73.4889 25.9057 73.4144 25.779 73.3681 25.6411C73.3129 25.4777 73.2863 25.306 73.2893 25.1335C73.2877 24.9847 73.3113 24.8367 73.3593 24.6959C73.4038 24.5666 73.4738 24.4475 73.565 24.3457C73.6564 24.2457 73.7684 24.1666 73.8932 24.1138C74.0317 24.0557 74.1808 24.0274 74.3309 24.0306C74.4564 24.0292 74.5812 24.0515 74.6985 24.0963C74.8087 24.1391 74.9086 24.2047 74.9917 24.2888C75.077 24.3777 75.1427 24.4836 75.1843 24.5996C75.2349 24.7398 75.2587 24.8882 75.2543 25.0372C75.2643 25.0774 75.2643 25.1195 75.2543 25.1597C75.2458 25.1711 75.2344 25.1799 75.2213 25.1853C75.2082 25.1907 75.1939 25.1924 75.1799 25.1904H73.7007C73.7025 25.3135 73.7217 25.4358 73.7576 25.5536C73.7877 25.6486 73.8368 25.7364 73.902 25.8118C73.962 25.8793 74.0369 25.9317 74.1208 25.965C74.2113 26.0008 74.3079 26.0187 74.4053 26.0175C74.4912 26.019 74.5768 26.0071 74.6591 25.9825C74.7223 25.9628 74.7838 25.9379 74.8429 25.9081L74.9698 25.8337C74.9951 25.8141 75.0255 25.8019 75.0573 25.7987C75.0717 25.798 75.0859 25.8008 75.0989 25.8069C75.1119 25.813 75.1232 25.8222 75.1317 25.8337L75.2149 26.0175ZM74.8998 24.9803C74.9004 24.8956 74.8871 24.8113 74.8604 24.7309C74.8377 24.6585 74.8004 24.5915 74.751 24.5339C74.7014 24.4788 74.6401 24.4355 74.5716 24.407C74.4965 24.3767 74.4162 24.3619 74.3352 24.3632C74.2552 24.3596 74.1752 24.3721 74.1 24.3999C74.0249 24.4277 73.956 24.4703 73.8976 24.5252C73.7852 24.6456 73.7146 24.7991 73.6963 24.9628L74.8998 24.9803Z" fill="white"/>
<path d="M75.8581 26.3282V24.442L75.613 24.4158C75.5844 24.4102 75.5575 24.3982 75.5342 24.3807C75.5253 24.3724 75.5183 24.3622 75.5138 24.3509C75.5092 24.3395 75.5072 24.3273 75.508 24.3151V24.1576H75.8581V23.9737C75.8558 23.8592 75.8736 23.7452 75.9106 23.6368C75.9433 23.5436 75.9955 23.4586 76.0638 23.3873C76.1303 23.3194 76.211 23.2671 76.3001 23.2341C76.4011 23.1979 76.5078 23.1801 76.6152 23.1816C76.7089 23.1808 76.802 23.1956 76.8909 23.2254V23.4223C76.8909 23.4374 76.8849 23.4519 76.8742 23.4626C76.8636 23.4732 76.8491 23.4792 76.834 23.4792H76.6896C76.6273 23.4786 76.5654 23.4875 76.5058 23.5055C76.4528 23.5208 76.4046 23.5494 76.3657 23.5886C76.3233 23.6333 76.2919 23.6873 76.2738 23.7462C76.2512 23.8243 76.2409 23.9055 76.2432 23.9869V24.1576H77.2454V24.035C77.2433 23.9083 77.264 23.7823 77.3066 23.663C77.3478 23.552 77.4137 23.4517 77.4992 23.3698C77.5893 23.2839 77.6968 23.2183 77.8143 23.1772C77.9554 23.1308 78.1034 23.1086 78.2519 23.1116H78.4226C78.4748 23.1179 78.5261 23.1297 78.5758 23.1466V23.3479C78.5778 23.3528 78.5789 23.358 78.5789 23.3632C78.5789 23.3685 78.5778 23.3737 78.5758 23.3786H78.5364H78.3395C78.1377 23.3608 77.9366 23.4185 77.7749 23.5405C77.7129 23.6043 77.6651 23.6807 77.635 23.7645C77.6048 23.8482 77.5928 23.9375 77.5999 24.0263V24.14H78.939V26.3282H78.5452V24.4376H77.6086V26.3282H77.2191V24.4376H76.2301V26.3282H75.8581Z" fill="white"/>
<path d="M81.1351 24.5076L81.1001 24.5427C81.0844 24.5477 81.0676 24.5477 81.0519 24.5427C81.0194 24.5422 80.9882 24.5297 80.9644 24.5076L80.8681 24.4464C80.8222 24.4212 80.7738 24.4006 80.7237 24.3851C80.56 24.3402 80.3861 24.351 80.2292 24.4157C80.1467 24.4532 80.0745 24.5103 80.0191 24.582C79.9601 24.6605 79.917 24.7497 79.8922 24.8446C79.8623 24.9574 79.8476 25.0737 79.8484 25.1904C79.846 25.3114 79.8607 25.4323 79.8922 25.5492C79.9187 25.6444 79.9633 25.7335 80.0235 25.8118C80.077 25.8808 80.1459 25.9363 80.2248 25.9737C80.3085 26.0121 80.3997 26.0315 80.4918 26.0306C80.572 26.0327 80.6519 26.0209 80.7281 25.9956C80.7821 25.9773 80.8335 25.9523 80.8813 25.9212L80.9819 25.8468C81.0031 25.826 81.0311 25.8135 81.0607 25.8118C81.075 25.8111 81.0893 25.8139 81.1023 25.82C81.1152 25.8261 81.1265 25.8353 81.1351 25.8468L81.2445 25.9912C81.1981 26.0497 81.1436 26.1013 81.0826 26.1444C81.021 26.1865 80.9549 26.2218 80.8856 26.2494C80.8137 26.2779 80.7388 26.2984 80.6624 26.3107C80.5838 26.3174 80.5048 26.3174 80.4261 26.3107C80.294 26.3125 80.1629 26.2872 80.041 26.2363C79.9222 26.1857 79.8161 26.1095 79.7303 26.0131C79.6385 25.9084 79.5686 25.7864 79.5246 25.6543C79.4293 25.3478 79.4293 25.0197 79.5246 24.7133C79.5667 24.58 79.6352 24.4565 79.7259 24.3501C79.8164 24.2479 79.9285 24.1672 80.0541 24.1138C80.1928 24.0565 80.3417 24.0282 80.4918 24.0306C80.6325 24.0277 80.7724 24.053 80.9031 24.105C81.0211 24.1554 81.1281 24.2282 81.2182 24.3195L81.1351 24.5076Z" fill="white"/>
<path d="M82.1722 23.4136C82.1728 23.4498 82.1653 23.4856 82.1503 23.5186C82.1352 23.5511 82.1145 23.5808 82.0891 23.6061C82.0627 23.6324 82.0315 23.6532 81.9972 23.6674C81.9626 23.6822 81.9253 23.6896 81.8877 23.6893C81.8516 23.6894 81.8158 23.682 81.7827 23.6674C81.7498 23.6529 81.7201 23.6321 81.6952 23.6061C81.6712 23.5805 81.652 23.5509 81.6383 23.5186C81.6311 23.484 81.6311 23.4482 81.6383 23.4136C81.631 23.3775 81.631 23.3403 81.6383 23.3042C81.6513 23.2702 81.6706 23.239 81.6952 23.2123C81.7201 23.1863 81.7498 23.1655 81.7827 23.151C81.8174 23.1439 81.8531 23.1439 81.8877 23.151C81.9238 23.1437 81.961 23.1437 81.9972 23.151C82.0315 23.1652 82.0627 23.186 82.0891 23.2123C82.1151 23.2387 82.1359 23.2699 82.1503 23.3042C82.1654 23.3386 82.1728 23.376 82.1722 23.4136ZM82.0891 24.1094V26.3239H81.6996V24.1094H82.0891Z" fill="white"/>
<path d="M84.5283 26.0175C84.4783 26.0773 84.4193 26.129 84.3533 26.1706C84.2859 26.2135 84.214 26.2488 84.1388 26.2757C84.062 26.3031 83.983 26.3236 83.9025 26.3369C83.8224 26.3436 83.7419 26.3436 83.6618 26.3369C83.5122 26.34 83.3634 26.3132 83.2242 26.2582C83.098 26.2076 82.9844 26.1299 82.8916 26.0306C82.7936 25.9232 82.719 25.7965 82.6728 25.6586C82.6176 25.4951 82.591 25.3234 82.594 25.1509C82.5924 25.0022 82.616 24.8542 82.664 24.7133C82.7085 24.584 82.7784 24.465 82.8697 24.3632C82.9611 24.2631 83.0731 24.184 83.1979 24.1312C83.3364 24.0732 83.4855 24.0449 83.6356 24.0481C83.7611 24.0467 83.8859 24.0689 84.0032 24.1137C84.1134 24.1566 84.2133 24.2222 84.2964 24.3063C84.3817 24.3952 84.4473 24.5011 84.4889 24.617C84.5396 24.7572 84.5633 24.9057 84.559 25.0547C84.569 25.0949 84.569 25.137 84.559 25.1772C84.5505 25.1885 84.5391 25.1973 84.526 25.2027C84.5129 25.2081 84.4986 25.2099 84.4846 25.2078H83.0054C83.0072 25.331 83.0263 25.4533 83.0623 25.5711C83.0924 25.666 83.1415 25.7539 83.2067 25.8293C83.2666 25.8967 83.3416 25.9492 83.4255 25.9825C83.516 26.0183 83.6126 26.0361 83.71 26.035C83.7959 26.0364 83.8815 26.0246 83.9638 26C84.027 25.9802 84.0885 25.9554 84.1476 25.9256L84.2745 25.8512C84.2998 25.8315 84.3302 25.8194 84.362 25.8162C84.3764 25.8154 84.3906 25.8183 84.4036 25.8244C84.4166 25.8305 84.4278 25.8397 84.4364 25.8512L84.5283 26.0175ZM84.2132 24.9803C84.2138 24.8955 84.2005 24.8112 84.1738 24.7308C84.1511 24.6584 84.1139 24.5914 84.0644 24.5339C84.0148 24.4788 83.9535 24.4354 83.885 24.407C83.81 24.3767 83.7296 24.3618 83.6487 24.3632C83.5686 24.3596 83.4886 24.372 83.4135 24.3998C83.3383 24.4277 83.2695 24.4703 83.2111 24.5251C83.0986 24.6456 83.028 24.799 83.0097 24.9628L84.2132 24.9803Z" fill="white"/>
<path d="M85.4067 24.4333C85.4539 24.3812 85.5051 24.333 85.5598 24.2889C85.6128 24.2454 85.67 24.2073 85.7305 24.1751C85.7915 24.1428 85.8562 24.1178 85.9231 24.1007C85.9947 24.0831 86.0682 24.0743 86.1419 24.0744C86.2515 24.0728 86.3602 24.0936 86.4614 24.1357C86.551 24.1736 86.6304 24.2321 86.6933 24.3064C86.7573 24.3851 86.8049 24.4759 86.8334 24.5733C86.8664 24.6841 86.8826 24.7991 86.8815 24.9147V26.3283H86.492V24.9147C86.5005 24.7756 86.4603 24.6379 86.3782 24.5252C86.334 24.4772 86.2796 24.4398 86.219 24.4155C86.1585 24.3913 86.0932 24.3809 86.0281 24.3852C85.9148 24.3845 85.8032 24.4131 85.7043 24.4683C85.6002 24.5281 85.507 24.605 85.4286 24.6959V26.3283H85.0391V24.1094H85.2754C85.2995 24.1081 85.3233 24.1159 85.342 24.1314C85.3606 24.1468 85.3728 24.1686 85.376 24.1926L85.4067 24.4333Z" fill="white"/>
<path d="M89.0204 24.5077L88.9854 24.5427C88.9697 24.5477 88.9529 24.5477 88.9372 24.5427C88.9103 24.5418 88.8844 24.5326 88.8629 24.5164L88.7666 24.4552C88.7206 24.43 88.6722 24.4094 88.6221 24.3939C88.4585 24.349 88.2845 24.3598 88.1276 24.4245C88.0451 24.462 87.973 24.5191 87.9176 24.5908C87.8585 24.6692 87.8154 24.7584 87.7906 24.8534C87.7608 24.9662 87.746 25.0825 87.7469 25.1991C87.7444 25.3202 87.7592 25.4411 87.7906 25.558C87.8172 25.6531 87.8617 25.7423 87.9219 25.8206C87.9754 25.8896 88.0444 25.9451 88.1232 25.9825C88.207 26.0209 88.2981 26.0403 88.3902 26.0394C88.4704 26.0415 88.5504 26.0297 88.6265 26.0044C88.6805 25.9861 88.7319 25.9611 88.7797 25.93L88.8804 25.8556C88.9015 25.8348 88.9295 25.8223 88.9591 25.8206C88.9735 25.8199 88.9877 25.8227 89.0007 25.8288C89.0137 25.8349 89.0249 25.8441 89.0335 25.8556L89.1429 26C89.0965 26.0585 89.042 26.1101 88.981 26.1532C88.9194 26.1953 88.8534 26.2306 88.7841 26.2582C88.7121 26.2866 88.6373 26.3072 88.5609 26.3195C88.4822 26.3262 88.4032 26.3262 88.3246 26.3195C88.1925 26.3213 88.0614 26.2959 87.9394 26.2451C87.8207 26.1945 87.7146 26.1183 87.6287 26.0219C87.537 25.9172 87.467 25.7952 87.423 25.663C87.3277 25.3566 87.3277 25.0285 87.423 24.7221C87.4652 24.5888 87.5336 24.4653 87.6243 24.3589C87.7148 24.2567 87.827 24.176 87.9526 24.1226C88.0912 24.0652 88.2402 24.0369 88.3902 24.0394C88.5309 24.0365 88.6708 24.0618 88.8016 24.1138C88.9195 24.1642 89.0265 24.237 89.1167 24.3282L89.0204 24.5077Z" fill="white"/>
<path d="M91.4641 24.1094L90.2256 26.9803C90.2146 27.0067 90.1982 27.0306 90.1775 27.0503C90.151 27.0699 90.1184 27.0792 90.0856 27.0766H89.7967L90.2037 26.2013L89.2891 24.1138H89.626C89.6546 24.1127 89.6826 24.122 89.7048 24.14C89.7226 24.1553 89.7362 24.1749 89.7442 24.1969L90.335 25.593C90.3583 25.6558 90.3773 25.7201 90.3919 25.7855C90.4123 25.7155 90.4342 25.6513 90.4576 25.593L91.0352 24.1969C91.0438 24.174 91.0591 24.1542 91.079 24.14C91.0994 24.1255 91.1239 24.1178 91.149 24.1181L91.4641 24.1094Z" fill="white"/>
<path d="M92.8438 26.3283V24.1095H93.0801C93.1042 24.1081 93.128 24.116 93.1466 24.1314C93.1653 24.1468 93.1775 24.1686 93.1807 24.1926L93.2114 24.4202C93.2892 24.3239 93.3823 24.2411 93.4871 24.1751C93.5936 24.1097 93.7166 24.0763 93.8416 24.0788C93.9744 24.0732 94.1044 24.1186 94.2048 24.2057C94.3027 24.2966 94.3725 24.4135 94.4061 24.5427C94.4349 24.4663 94.4763 24.3953 94.5287 24.3327C94.5776 24.2758 94.6352 24.2271 94.6993 24.1882C94.7618 24.1505 94.8297 24.1225 94.9006 24.1051C94.9708 24.0875 95.0428 24.0787 95.1151 24.0788C95.2214 24.0776 95.3269 24.0969 95.4258 24.1357C95.5145 24.1712 95.5939 24.2266 95.6578 24.2977C95.7234 24.3743 95.7726 24.4637 95.8022 24.5602C95.8384 24.6764 95.8561 24.7975 95.8547 24.9191V26.3327H95.4608V24.9147C95.4707 24.7741 95.4304 24.6345 95.347 24.5208C95.3061 24.4749 95.2553 24.4388 95.1985 24.4153C95.1416 24.3918 95.0802 24.3815 95.0188 24.3852C94.9559 24.385 94.8935 24.3969 94.835 24.4202C94.7774 24.4426 94.7252 24.4769 94.6818 24.5208C94.6346 24.5676 94.5987 24.6245 94.5768 24.6871C94.5494 24.7614 94.5361 24.84 94.5374 24.9191V26.3327H94.1435V24.9147C94.1548 24.7739 94.1178 24.6334 94.0385 24.5165C93.9998 24.4716 93.9512 24.4363 93.8965 24.4135C93.8418 24.3907 93.7825 24.381 93.7234 24.3852C93.6286 24.3848 93.5358 24.4122 93.4564 24.464C93.3687 24.5199 93.2916 24.591 93.2289 24.674V26.3239L92.8438 26.3283Z" fill="white"/>
<path d="M96.3866 24.4246C96.5014 24.3126 96.6366 24.2234 96.7848 24.162C96.9336 24.1023 97.0928 24.0726 97.2531 24.0744C97.3655 24.0727 97.4771 24.0935 97.5813 24.1357C97.6747 24.1737 97.7584 24.232 97.8264 24.3064C97.8938 24.3825 97.9445 24.472 97.9752 24.569C98.0104 24.6793 98.0282 24.7945 98.0277 24.9103V26.3283H97.8526C97.824 26.3359 97.7938 26.3359 97.7651 26.3283C97.7406 26.3101 97.7236 26.2837 97.717 26.2539L97.6732 26.0438C97.6189 26.0949 97.5619 26.1431 97.5025 26.1882C97.448 26.2293 97.3893 26.2645 97.3275 26.2933C97.2644 26.3223 97.1984 26.3444 97.1305 26.3589C97.0543 26.3746 96.9765 26.382 96.8986 26.3808C96.817 26.3815 96.7359 26.3697 96.6579 26.3458C96.5856 26.3229 96.5186 26.2857 96.461 26.2364C96.4041 26.1856 96.3592 26.1228 96.3297 26.0526C96.2953 25.9694 96.2789 25.8799 96.2815 25.79C96.2824 25.7001 96.3081 25.6122 96.3559 25.5361C96.415 25.4456 96.4964 25.3717 96.5922 25.3217C96.7295 25.2487 96.8771 25.1971 97.0299 25.1685C97.24 25.124 97.454 25.1005 97.6688 25.0985V24.9235C97.6793 24.7848 97.6406 24.6469 97.5594 24.534C97.5183 24.4885 97.4674 24.4531 97.4105 24.4304C97.3536 24.4076 97.2923 24.3981 97.2312 24.4027C97.1495 24.4002 97.0681 24.4121 96.9905 24.4377C96.9324 24.4596 96.8766 24.4875 96.8242 24.5208L96.7017 24.604C96.6724 24.6256 96.6373 24.6378 96.601 24.639C96.5782 24.6464 96.5537 24.6464 96.531 24.639C96.5117 24.6247 96.4954 24.6069 96.4828 24.5865L96.3866 24.4246ZM97.6469 25.3305C97.5002 25.3351 97.354 25.3497 97.2093 25.3742C97.1025 25.3905 96.9982 25.4199 96.8986 25.4618C96.8321 25.4894 96.7735 25.533 96.7279 25.5887C96.6929 25.637 96.6744 25.6953 96.6754 25.755C96.6744 25.8076 96.6848 25.8599 96.706 25.9081C96.7234 25.949 96.7505 25.985 96.7848 26.0132C96.8179 26.0415 96.8567 26.0623 96.8986 26.0744C96.9465 26.081 96.9951 26.081 97.043 26.0744C97.1055 26.0819 97.1687 26.0819 97.2312 26.0744C97.2875 26.0607 97.3418 26.0401 97.3931 26.0132C97.444 25.9871 97.4923 25.9563 97.5375 25.9213C97.5857 25.8822 97.631 25.8398 97.6732 25.7944L97.6469 25.3305Z" fill="white"/>
<path d="M100.454 23.1028V26.3282H100.222C100.197 26.3296 100.173 26.3219 100.154 26.3066C100.134 26.2913 100.121 26.2693 100.117 26.245L100.082 25.9781C99.9911 26.0884 99.8814 26.1817 99.758 26.2538C99.6248 26.3288 99.4732 26.3651 99.3204 26.3588C99.2011 26.3601 99.0829 26.3347 98.9747 26.2844C98.8712 26.2351 98.7811 26.1615 98.7121 26.07C98.6344 25.9636 98.5779 25.8432 98.5458 25.7155C98.5031 25.5557 98.4825 25.3907 98.4845 25.2253C98.4852 25.077 98.5073 24.9296 98.5502 24.7877C98.5897 24.6546 98.6535 24.5299 98.7383 24.4201C98.8193 24.3168 98.9226 24.233 99.0403 24.175C99.1656 24.1142 99.3037 24.0842 99.4429 24.0875C99.5634 24.0845 99.683 24.1084 99.7931 24.1575C99.8907 24.2045 99.9783 24.2699 100.051 24.35V23.1028H100.454ZM100.064 24.6389C100.004 24.5515 99.9229 24.4808 99.8281 24.4332C99.7385 24.3939 99.6414 24.3745 99.5436 24.3763C99.453 24.3718 99.3626 24.3893 99.2803 24.4274C99.198 24.4656 99.1261 24.5231 99.0709 24.5951C98.9489 24.7817 98.8906 25.0028 98.9046 25.2253C98.9018 25.3503 98.9135 25.4751 98.9397 25.5973C98.9593 25.6882 98.9965 25.7744 99.0491 25.8511C99.0949 25.9144 99.1569 25.9643 99.2285 25.9956C99.3034 26.0262 99.3839 26.0411 99.4648 26.0393C99.5831 26.0424 99.6999 26.012 99.8018 25.9518C99.9039 25.8873 99.993 25.8042 100.064 25.7067V24.6389Z" fill="white"/>
<path d="M102.841 26.0175C102.791 26.0773 102.732 26.129 102.666 26.1706C102.598 26.2135 102.527 26.2488 102.451 26.2757C102.375 26.3031 102.295 26.3236 102.215 26.3369C102.135 26.3436 102.054 26.3436 101.974 26.3369C101.825 26.34 101.676 26.3132 101.537 26.2582C101.41 26.2076 101.297 26.1299 101.204 26.0306C101.106 25.9232 101.032 25.7965 100.985 25.6586C100.93 25.4951 100.903 25.3234 100.906 25.1509C100.905 25.0022 100.929 24.8542 100.977 24.7133C101.021 24.584 101.091 24.465 101.182 24.3632C101.274 24.2631 101.386 24.184 101.51 24.1312C101.649 24.0732 101.798 24.0449 101.948 24.0481C102.074 24.0467 102.198 24.0689 102.316 24.1137C102.426 24.1566 102.526 24.2222 102.609 24.3063C102.694 24.3952 102.76 24.5011 102.801 24.617C102.852 24.7572 102.876 24.9057 102.871 25.0547C102.881 25.0949 102.881 25.137 102.871 25.1772C102.863 25.1885 102.852 25.1973 102.838 25.2027C102.825 25.2081 102.811 25.2099 102.797 25.2078H101.318C101.32 25.331 101.339 25.4533 101.375 25.5711C101.405 25.666 101.454 25.7539 101.519 25.8293C101.579 25.8967 101.654 25.9492 101.738 25.9825C101.828 26.0183 101.925 26.0361 102.022 26.035C102.108 26.0364 102.194 26.0246 102.276 26C102.339 25.9802 102.401 25.9554 102.46 25.9256L102.587 25.8512C102.612 25.8315 102.643 25.8194 102.675 25.8162C102.689 25.8154 102.703 25.8183 102.716 25.8244C102.729 25.8305 102.74 25.8397 102.749 25.8512L102.841 26.0175ZM102.526 24.9803C102.526 24.8955 102.513 24.8112 102.486 24.7308C102.464 24.6584 102.426 24.5914 102.377 24.5339C102.327 24.4788 102.266 24.4354 102.198 24.407C102.122 24.3767 102.042 24.3618 101.961 24.3632C101.881 24.3596 101.801 24.372 101.726 24.3998C101.651 24.4277 101.582 24.4703 101.524 24.5251C101.411 24.6456 101.341 24.799 101.322 24.9628L102.526 24.9803Z" fill="white"/>
<path d="M106.294 26.0175C106.244 26.0774 106.185 26.1291 106.119 26.1707C106.051 26.2075 105.979 26.2369 105.904 26.2582C105.828 26.2856 105.749 26.3061 105.668 26.3195C105.588 26.3262 105.508 26.3262 105.427 26.3195C105.278 26.3225 105.129 26.2957 104.99 26.2407C104.864 26.1901 104.75 26.1124 104.657 26.0131C104.559 25.9057 104.485 25.779 104.438 25.6411C104.383 25.4777 104.357 25.306 104.36 25.1335C104.358 24.9847 104.382 24.8367 104.43 24.6959C104.474 24.5666 104.544 24.4475 104.635 24.3457C104.727 24.2457 104.839 24.1666 104.964 24.1138C105.102 24.0557 105.251 24.0274 105.401 24.0306C105.527 24.0292 105.651 24.0515 105.769 24.0963C105.879 24.1391 105.979 24.2047 106.062 24.2888C106.147 24.3777 106.213 24.4836 106.255 24.5996C106.305 24.7398 106.329 24.8882 106.325 25.0372C106.335 25.0774 106.335 25.1195 106.325 25.1597C106.316 25.1711 106.305 25.1799 106.292 25.1853C106.279 25.1907 106.264 25.1924 106.25 25.1904H104.771C104.773 25.3135 104.792 25.4358 104.828 25.5536C104.858 25.6486 104.907 25.7364 104.972 25.8118C105.032 25.8793 105.107 25.9317 105.191 25.965C105.282 26.0008 105.378 26.0187 105.476 26.0175C105.561 26.019 105.647 26.0071 105.729 25.9825C105.793 25.9628 105.854 25.9379 105.913 25.9081L106.04 25.8337C106.065 25.8141 106.096 25.8019 106.128 25.7987C106.142 25.798 106.156 25.8008 106.169 25.8069C106.182 25.813 106.193 25.8222 106.202 25.8337L106.294 26.0175ZM105.979 24.9803C105.979 24.8956 105.966 24.8113 105.939 24.7309C105.917 24.6585 105.879 24.5915 105.83 24.5339C105.78 24.4788 105.719 24.4355 105.651 24.407C105.576 24.3767 105.495 24.3619 105.414 24.3632C105.334 24.3596 105.254 24.3721 105.179 24.3999C105.104 24.4277 105.035 24.4703 104.977 24.5252C104.864 24.6456 104.794 24.7991 104.775 24.9628L105.979 24.9803Z" fill="white"/>
<path d="M106.754 24.4246C106.869 24.3126 107.004 24.2234 107.152 24.162C107.301 24.1023 107.46 24.0726 107.62 24.0744C107.733 24.0727 107.844 24.0935 107.948 24.1357C108.042 24.1737 108.126 24.232 108.194 24.3064C108.261 24.3825 108.312 24.472 108.342 24.569C108.378 24.6793 108.395 24.7945 108.395 24.9103V26.3283H108.22C108.191 26.3359 108.161 26.3359 108.132 26.3283C108.108 26.3101 108.091 26.2837 108.084 26.2539L108.04 26.0438C107.986 26.0949 107.929 26.1431 107.87 26.1882C107.815 26.2293 107.757 26.2645 107.695 26.2933C107.632 26.3223 107.566 26.3444 107.498 26.3589C107.421 26.3746 107.344 26.382 107.266 26.3808C107.184 26.3815 107.103 26.3697 107.025 26.3458C106.953 26.3229 106.886 26.2857 106.828 26.2364C106.771 26.1856 106.726 26.1228 106.697 26.0526C106.662 25.9694 106.646 25.8799 106.649 25.79C106.65 25.7001 106.675 25.6122 106.723 25.5361C106.782 25.4456 106.864 25.3717 106.959 25.3217C107.097 25.2487 107.244 25.1971 107.397 25.1685C107.607 25.124 107.821 25.1005 108.036 25.0985V24.9235C108.047 24.7848 108.008 24.6469 107.927 24.534C107.885 24.4885 107.835 24.4531 107.778 24.4304C107.721 24.4076 107.659 24.3981 107.598 24.4027C107.517 24.4002 107.435 24.4121 107.358 24.4377C107.3 24.4596 107.244 24.4875 107.191 24.5208L107.069 24.604C107.04 24.6256 107.005 24.6378 106.968 24.639C106.945 24.6464 106.921 24.6464 106.898 24.639C106.879 24.6247 106.863 24.6069 106.85 24.5865L106.754 24.4246ZM108.014 25.3305C107.867 25.3351 107.721 25.3497 107.576 25.3742C107.47 25.3905 107.365 25.4199 107.266 25.4618C107.199 25.4894 107.141 25.533 107.095 25.5887C107.06 25.637 107.042 25.6953 107.043 25.755C107.042 25.8076 107.052 25.8599 107.073 25.9081C107.091 25.949 107.118 25.985 107.152 26.0132C107.185 26.0415 107.224 26.0623 107.266 26.0744C107.314 26.081 107.362 26.081 107.41 26.0744C107.473 26.0819 107.536 26.0819 107.598 26.0744C107.655 26.0607 107.709 26.0401 107.76 26.0132C107.811 25.9871 107.86 25.9563 107.905 25.9213C107.953 25.8822 107.998 25.8398 108.04 25.7944L108.014 25.3305Z" fill="white"/>
<path d="M110.287 24.4771C110.28 24.4923 110.268 24.505 110.253 24.5136C110.238 24.5221 110.221 24.5262 110.204 24.5252C110.178 24.5244 110.152 24.5169 110.13 24.5033L110.029 24.4508C109.982 24.4295 109.934 24.4119 109.885 24.3983C109.821 24.38 109.754 24.3711 109.688 24.372C109.627 24.3713 109.566 24.3802 109.508 24.3983C109.459 24.4135 109.413 24.4372 109.373 24.4683C109.338 24.4955 109.31 24.5298 109.29 24.569C109.269 24.6082 109.259 24.6517 109.259 24.6959C109.256 24.7484 109.273 24.7999 109.307 24.8403C109.344 24.8819 109.389 24.9161 109.438 24.941C109.497 24.9709 109.559 24.9958 109.622 25.0154L109.832 25.081L110.042 25.1598C110.108 25.1876 110.17 25.2245 110.226 25.2692C110.281 25.3133 110.325 25.3685 110.357 25.4311C110.391 25.502 110.408 25.5801 110.405 25.6587C110.407 25.7561 110.389 25.8528 110.353 25.9432C110.316 26.0287 110.261 26.105 110.191 26.1664C110.114 26.2325 110.025 26.283 109.928 26.3152C109.813 26.3542 109.692 26.3735 109.57 26.372C109.42 26.3767 109.271 26.3514 109.132 26.2976C109.015 26.2528 108.907 26.1876 108.812 26.1051L108.904 25.9563C108.914 25.939 108.928 25.9241 108.944 25.9125C108.964 25.9069 108.985 25.9069 109.005 25.9125C109.035 25.9138 109.064 25.9245 109.088 25.9432L109.193 26.0088C109.242 26.0374 109.293 26.0609 109.346 26.0788C109.419 26.1009 109.494 26.1113 109.57 26.1095C109.638 26.1105 109.706 26.1002 109.771 26.0788C109.822 26.0614 109.87 26.0347 109.911 26.0001C109.947 25.9675 109.976 25.9271 109.994 25.8819C110.012 25.8374 110.021 25.7898 110.02 25.7418C110.023 25.6867 110.006 25.6324 109.972 25.5887C109.936 25.5466 109.891 25.5123 109.841 25.488C109.782 25.4576 109.721 25.4327 109.657 25.4136L109.443 25.348L109.233 25.2692C109.166 25.2404 109.104 25.2021 109.049 25.1554C108.994 25.1097 108.949 25.0531 108.918 24.9891C108.883 24.9136 108.867 24.8313 108.869 24.7484C108.869 24.6639 108.887 24.5803 108.922 24.5033C108.958 24.4245 109.01 24.3544 109.075 24.2976C109.147 24.2359 109.23 24.1884 109.32 24.1576C109.427 24.1212 109.54 24.1035 109.653 24.1051C109.787 24.1032 109.921 24.127 110.047 24.1751C110.158 24.2179 110.261 24.2818 110.349 24.3633L110.287 24.4771Z" fill="white"/>
<path d="M112.753 24.1094L111.515 26.9803C111.504 27.0067 111.487 27.0306 111.467 27.0503C111.44 27.0699 111.407 27.0792 111.375 27.0766H111.086L111.493 26.2013L110.578 24.1138H110.915C110.944 24.1127 110.972 24.122 110.994 24.14C111.012 24.1553 111.025 24.1749 111.033 24.1969L111.624 25.593C111.647 25.6558 111.666 25.7201 111.681 25.7855C111.701 25.7155 111.723 25.6513 111.747 25.593L112.324 24.1969C112.333 24.174 112.348 24.1542 112.368 24.14C112.388 24.1255 112.413 24.1178 112.438 24.1181L112.753 24.1094Z" fill="white"/>
</g>
<defs>
<radialGradient id="paint0_radial_18972_2709" cx="0" cy="0" r="1" gradientUnits="userSpaceOnUse" gradientTransform="translate(11.285 11.3523) scale(37.0985 37.0985)">
<stop stop-color="white"/>
<stop offset="0.01" stop-color="#F6F9FB"/>
<stop offset="0.05" stop-color="#C8DAE5"/>
<stop offset="0.09" stop-color="#9DBCD1"/>
<stop offset="0.14" stop-color="#77A3C0"/>
<stop offset="0.2" stop-color="#578DB0"/>
<stop offset="0.25" stop-color="#3B7AA4"/>
<stop offset="0.32" stop-color="#256B99"/>
<stop offset="0.4" stop-color="#146092"/>
<stop offset="0.49" stop-color="#09588C"/>
<stop offset="0.63" stop-color="#025389"/>
<stop offset="1" stop-color="#005288"/>
</radialGradient>
<clipPath id="clip0_18972_2709">
<rect width="112.757" height="32" fill="white"/>
</clipPath>
</defs>
</svg>
