<svg width="80" height="80" viewBox="0 0 80 80" fill="none" xmlns="http://www.w3.org/2000/svg">
<path d="M17.4526 30.5751C20.0277 30.5813 22.5464 29.797 24.662 28.3251L29.5245 28.997C30.1026 29.0782 30.6807 28.8438 31.0369 28.3813C31.3963 27.922 31.4807 27.3063 31.2619 26.7657L29.3964 22.1845V22.1813C30.6245 18.7751 30.337 15.0063 28.6088 11.8253C26.8839 8.64405 23.8807 6.35029 20.3528 5.52221C16.8279 4.69405 13.1184 5.41283 10.156 7.49405C7.19357 9.57533 5.25917 12.8222 4.84357 16.4188C4.42794 20.0157 5.56544 23.6189 7.97485 26.3221C10.3811 29.0283 13.8305 30.5751 17.4526 30.5751ZM17.4526 7.10309C21.0182 7.10621 24.3526 8.87181 26.359 11.8218C28.3653 14.7718 28.784 18.5218 27.4778 21.8402C27.3871 22.0683 27.3871 22.3246 27.4778 22.5527L29.2996 27.034L24.5434 26.3777C24.2965 26.3434 24.0465 26.4059 23.8465 26.5527C21.0621 28.6059 17.4652 29.1965 14.1745 28.1465C10.8807 27.0965 8.29008 24.5309 7.212 21.2465C6.13072 17.9652 6.69013 14.3621 8.71824 11.5625C10.7432 8.7625 13.9901 7.10313 17.4462 7.10313L17.4526 7.10309ZM52.9342 51.3847C55.0561 48.9034 56.2249 45.7472 56.2405 42.4815C56.3655 38.3909 54.5998 34.4751 51.453 31.8599C48.5123 29.5255 44.8498 28.2786 41.0938 28.3412C37.3656 28.2755 33.7313 29.5099 30.8122 31.8287C27.6903 34.438 25.9434 38.3349 26.0715 42.4007C26.0871 45.6632 27.2559 48.8163 29.3746 51.2975C31.2559 53.5162 31.2278 55.4788 31.1902 58.1912C31.184 58.585 31.1777 58.9912 31.1777 59.4068L31.1809 59.41C31.1965 60.8225 32.0153 62.1037 33.2902 62.7131C33.2121 62.96 33.1715 63.2162 33.1715 63.4756V64.7818C33.1027 65.9569 33.9996 66.9662 35.1746 67.0443H35.4121H35.409C36.0652 69.6599 38.4621 71.4568 41.1558 71.3537C43.8465 71.4568 46.2434 69.6599 46.8996 67.0443H47.1371H47.134C48.3121 66.9693 49.2058 65.9568 49.1402 64.7818V63.4756C49.1371 63.2068 49.0933 62.9381 49.009 62.6818C50.2496 62.06 51.0403 60.7974 51.0527 59.41C51.0527 58.9725 51.0465 58.5569 51.0402 58.1569C51.0027 55.3725 50.978 53.6909 52.9342 51.3847ZM41.1558 69.4407C39.5183 69.5157 38.0121 68.5563 37.384 67.0438H44.9246C44.2965 68.5563 42.7902 69.5157 41.1558 69.4407ZM47.2246 64.7813C47.2308 64.9095 47.1902 65.0345 47.1058 65.1313H35.2058C35.1214 65.0345 35.0777 64.9095 35.0839 64.7813V63.4751C35.0777 63.347 35.1214 63.222 35.2058 63.1251H47.1026C47.1901 63.222 47.2307 63.347 47.2245 63.4751L47.2246 64.7813ZM49.1277 58.1844C49.1339 58.5751 49.1402 58.9845 49.1402 59.4094C49.0902 60.4501 48.2089 61.2563 47.1683 61.2125H35.0683C34.0246 61.2563 33.1434 60.45 33.0965 59.4094C33.0965 59 33.1027 58.6063 33.1059 58.2219C33.1465 55.3281 33.1809 52.8281 30.834 50.0627L30.8372 50.0596C28.9996 47.9314 27.9872 45.2127 27.9872 42.4002C27.9872 34.0594 34.7809 30.2626 41.0904 30.2626C47.4622 30.2626 54.3215 34.0876 54.3215 42.4874C54.3247 45.2999 53.3122 48.0218 51.4747 50.1499C49.0528 53.003 49.087 55.2876 49.1277 58.1844ZM72.6525 4.66605L51.7997 4.66292C49.9747 4.66605 48.4934 6.14732 48.4903 7.9754V24.2002C48.4934 26.0284 49.9747 27.5064 51.7997 27.5096H56.1466V30.4345C56.1497 30.7783 56.3309 31.0939 56.6278 31.2627C56.9247 31.4346 57.2903 31.4346 57.5872 31.2627L64.0872 27.5096H72.656C74.4841 27.5064 75.9653 26.0283 75.9653 24.2002V7.9722C75.9653 6.14404 74.4809 4.66284 72.6528 4.66284L72.6525 4.66605ZM74.0462 24.2004C74.0462 24.9692 73.4212 25.5942 72.6525 25.5942H63.8277C63.6589 25.5942 63.4933 25.6411 63.3464 25.7255L58.0589 28.7786V26.5536C58.0589 26.0224 57.6308 25.5943 57.0995 25.5943H51.7964C51.0277 25.5911 50.4027 24.9693 50.4027 24.1974V7.97258C50.4027 7.6007 50.5495 7.24757 50.812 6.98505C51.0745 6.72253 51.4308 6.57568 51.7996 6.57568H72.6524C73.4211 6.5788 74.0461 7.20068 74.0461 7.97256L74.0462 24.2004ZM53.871 11.9188C53.871 11.3907 54.3023 10.9595 54.8304 10.9595H64.9176C65.4176 10.997 65.8051 11.4157 65.8051 11.9188C65.8051 12.4188 65.4176 12.8376 64.9176 12.8751H54.8272C54.3022 12.872 53.8741 12.447 53.871 11.9188ZM70.715 16.5595C70.715 17.0907 70.2838 17.5188 69.7557 17.5188H54.8277C54.3277 17.4813 53.9402 17.0657 53.9402 16.5626C53.9402 16.0626 54.3277 15.6439 54.8277 15.6064H69.7589C70.287 15.6095 70.7119 16.0345 70.715 16.5595ZM70.715 21.1908V21.1939C70.715 21.722 70.2838 22.1533 69.7557 22.1533H54.8277C54.3277 22.1158 53.9402 21.697 53.9402 21.197C53.9402 20.6939 54.3277 20.2783 54.8277 20.2377H69.7589C70.2839 20.2408 70.7089 20.6658 70.7151 21.1877L70.715 21.1908ZM24.331 52.7436H6.95583C5.34335 52.7467 4.04023 54.0529 4.03711 55.6623V69.1807C4.04023 70.7932 5.34335 72.0963 6.95583 72.0994H14.0527L19.434 75.2057H19.4309C19.7277 75.3775 20.0934 75.3775 20.3902 75.2057C20.6871 75.0369 20.8715 74.7182 20.8715 74.3775V72.1024H24.334C25.9464 72.0993 27.2496 70.7962 27.2527 69.1837V55.6653C27.2527 54.8903 26.9433 54.1466 26.3964 53.5997C25.8496 53.0529 25.106 52.7436 24.331 52.7436ZM25.3342 69.1844C25.3342 69.7406 24.8842 70.1875 24.331 70.1875H19.9123C19.3811 70.1875 18.9498 70.6187 18.9498 71.15V72.7187L14.7873 70.3187C14.6405 70.2343 14.4749 70.1906 14.3061 70.1906H6.9561C6.68735 70.1906 6.43423 70.0843 6.24361 69.8968C6.0561 69.7062 5.95298 69.4531 5.95298 69.1843V55.6659C5.95298 55.1128 6.39985 54.6628 6.9561 54.6628H24.3313C24.8844 54.6628 25.3344 55.1128 25.3344 55.6659L25.3342 69.1844ZM8.52135 58.9564C8.52135 58.4251 8.94948 57.9939 9.48071 57.9939H17.8903C18.1559 57.9751 18.4184 58.0658 18.6153 58.247C18.8122 58.4314 18.9216 58.6845 18.9216 58.9533C18.9216 59.2189 18.8122 59.4751 18.6153 59.6564C18.4184 59.8376 18.1559 59.9314 17.8903 59.9095H9.47751C8.95251 59.9095 8.52447 59.4814 8.52135 58.9564ZM22.8806 62.8157C22.8806 63.347 22.4493 63.7751 21.9181 63.7751H9.47727C8.97727 63.7376 8.58975 63.322 8.58975 62.8188C8.58975 62.3157 8.97725 61.9001 9.47727 61.8626H21.9181C22.4462 61.8626 22.8774 62.2876 22.8806 62.8157ZM22.8806 66.6782C22.8806 67.2063 22.4493 67.6376 21.9181 67.6376H9.47727C8.97727 67.6001 8.58975 67.1813 8.58975 66.6782C8.58975 66.1782 8.97725 65.7595 9.47727 65.722H21.9181C22.4462 65.722 22.8774 66.1501 22.8806 66.6782ZM63.859 55.2374C60.6184 55.2374 57.5778 56.8061 55.703 59.4499C53.8283 62.0937 53.3499 65.4843 54.4218 68.5435L53.0155 71.9966C52.8155 72.4841 52.8936 73.0435 53.2186 73.4591C53.5405 73.8747 54.0624 74.0872 54.5874 74.0153L58.2498 73.5091L58.2467 73.5122C60.8749 75.2935 64.1905 75.7216 67.1811 74.6685C70.1749 73.6153 72.4905 71.206 73.4218 68.1716C74.353 65.1372 73.7905 61.8434 71.903 59.29C70.0186 56.74 67.0312 55.2343 63.859 55.2374ZM63.859 73.3159C62.1309 73.3221 60.4497 72.769 59.059 71.7409C58.8965 71.619 58.6965 71.5533 58.4903 71.5533C58.4465 71.5533 58.4028 71.5565 58.359 71.5596L55.0715 72.0127L56.3309 68.9158H56.334C56.4277 68.6877 56.4277 68.4346 56.3371 68.2034C55.034 64.9034 56.034 61.1377 58.8027 58.9193C61.5746 56.7006 65.4683 56.5506 68.4027 58.5443C71.3371 60.5412 72.6277 64.2162 71.584 67.6099C70.5402 71.0006 67.4058 73.3159 63.859 73.3159Z" fill="black"/>
</svg>
