<svg width="80" height="80" viewBox="0 0 80 80" fill="none" xmlns="http://www.w3.org/2000/svg">
<path d="M74.0727 68.8159H4.76953V60.6599H8.89449V49.0695H19.0129V45.604C10.5409 41.3039 8.67529 29.9599 15.4347 23.2167C20.8941 17.7574 29.7563 17.7574 35.2315 23.2167C42.0565 30.0417 40.0628 41.5231 31.4347 45.7103V60.6607H48.8003V27.5447H58.9187V11.1855H71.3595V60.6607H75.2501V68.8167L74.0727 68.8159ZM7.09113 66.4941H72.9095V62.9816H7.09113V66.4941ZM25.3975 34.2757H17.9631V31.9539H25.3975V28.2351L33.8535 33.1133L29.6348 35.5446L25.4004 37.9759L25.3975 34.2757ZM28.4726 33.5538L29.2257 33.1132L27.7195 32.2319V33.9882L28.4726 33.5538ZM29.1132 46.5882C26.5726 47.3101 23.8414 47.2789 21.3163 46.5257V60.6601H29.1132V46.5882ZM33.585 24.8634C29.0194 20.2978 21.6322 20.2978 17.0666 24.8634C12.501 29.429 12.501 36.8162 17.0666 41.3818C21.6322 45.9474 29.0194 45.9474 33.585 41.3818C38.135 36.8006 38.135 29.413 33.585 24.8634ZM69.0194 13.5074H61.2226V60.6602H69.0194V13.5074ZM58.9034 29.8666H51.1066V60.657H58.9034V29.8666ZM18.997 51.373H11.2158V60.6602H19.0126V51.373H18.997Z" fill="black"/>
</svg>
