<svg width="76" height="66" viewBox="0 0 76 66" fill="none" xmlns="http://www.w3.org/2000/svg">
<path fill-rule="evenodd" clip-rule="evenodd" d="M44.1158 55.4129C44.1127 55.9129 43.7064 56.3222 43.2033 56.3222H37.6408C37.1502 56.3066 36.7564 55.9035 36.7564 55.4129C36.7564 54.9191 37.1502 54.516 37.6408 54.5004H43.2033C43.7064 54.5035 44.1127 54.9098 44.1158 55.4129ZM36.7314 49.5785C36.7314 49.0753 37.1376 48.6691 37.6407 48.6691H40.5939C40.8407 48.6597 41.0782 48.7535 41.2532 48.9254C41.4314 49.0972 41.5314 49.3316 41.5314 49.5785C41.5314 49.8222 41.4314 50.0597 41.2532 50.2316C41.0782 50.4004 40.8407 50.4941 40.5939 50.4879H37.6407C37.1376 50.4879 36.7314 50.0785 36.7314 49.5785ZM25.369 55.4129C25.369 55.9129 24.9627 56.3222 24.4596 56.3222H7.53161C7.04099 56.3066 6.65033 55.9035 6.65033 55.4129C6.65033 54.9191 7.04096 54.516 7.53161 54.5004H24.4596C24.9627 54.5035 25.369 54.9098 25.369 55.4129ZM6.61857 49.5785C6.61857 49.0753 7.02482 48.6691 7.52793 48.6691H24.4527C24.6996 48.6597 24.9371 48.7535 25.1152 48.9254C25.2902 49.0972 25.3902 49.3316 25.3902 49.5785C25.3902 49.8222 25.2902 50.0597 25.1152 50.2316C24.9371 50.4004 24.6996 50.4941 24.4527 50.4879H7.52793C7.02481 50.4879 6.61857 50.0785 6.61857 49.5785ZM59.9346 54.991C57.8159 54.991 55.9064 53.7128 55.0971 51.7566C54.2877 49.7972 54.7377 47.5441 56.2377 46.0472C57.7377 44.5503 59.9908 44.1034 61.9471 44.9159C63.9033 45.7284 65.1783 47.6409 65.1752 49.7597C65.1752 52.6503 62.8283 54.9972 59.9346 54.9941V54.991ZM59.9346 42.6974C57.0815 42.6974 54.5096 44.4192 53.419 47.0567C52.3283 49.6942 52.9315 52.7286 54.9503 54.7442C56.969 56.763 60.0034 57.3661 62.6409 56.2724C65.2753 55.1818 66.9971 52.6068 66.9971 49.7537C66.9909 45.8568 63.8315 42.7005 59.9346 42.6974ZM74.0754 51.4502V48.0595L71.1785 47.5689C70.8285 47.5095 70.5472 47.2501 70.4535 46.9064C70.2097 46.0033 69.8504 45.1345 69.3879 44.322C69.2067 44.0157 69.2254 43.6314 69.4317 43.3407L71.1317 40.9532L68.7379 38.5594L66.3504 40.2594C66.0597 40.4657 65.6754 40.4844 65.3691 40.3063C64.5566 39.8375 63.6878 39.4781 62.7847 39.2313C62.4409 39.1375 62.1847 38.8563 62.1253 38.5063L61.6378 35.6187L58.2409 35.6156L57.7534 38.5031V38.5063C57.694 38.8563 57.4378 39.1375 57.094 39.2313C56.1909 39.475 55.3222 39.8344 54.5096 40.3031C54.2034 40.4812 53.819 40.4625 53.5284 40.2562L51.1409 38.5593L48.7408 40.9562L50.4408 43.3437H50.444C50.6471 43.6344 50.6658 44.0156 50.4908 44.325C50.0221 45.1344 49.6627 46.0032 49.4221 46.9094C49.3284 47.2532 49.0409 47.5126 48.6878 47.5688L45.8002 48.0563L45.8034 51.4501L48.6909 51.9376H48.6878C49.0409 51.9938 49.3284 52.2532 49.4221 52.5969C49.6628 53.5001 50.0221 54.372 50.4908 55.1813C50.6658 55.4907 50.6471 55.8751 50.444 56.1626L48.744 58.547L50.3971 60.2001H50.6752V60.4783L51.144 60.9439L53.5284 59.2439V59.247C53.819 59.0408 54.2034 59.022 54.5097 59.2001C55.3221 59.6658 56.1909 60.0283 57.0941 60.2689C57.4378 60.3626 57.6941 60.647 57.7534 60.997L58.2409 63.8876H61.6378L62.1253 60.997C62.1847 60.647 62.4409 60.3626 62.7847 60.2689C63.6878 60.0282 64.5565 59.6689 65.3691 59.2033C65.6785 59.0251 66.0597 59.0439 66.3504 59.2501L68.7379 60.9501L71.1379 58.5501L69.4379 56.1657L69.4348 56.1626C69.2285 55.8751 69.2098 55.4876 69.391 55.1813C69.8535 54.3689 70.2129 53.5 70.4566 52.5969C70.5504 52.2532 70.8316 51.9969 71.1816 51.9375L74.0754 51.4502ZM31.8786 60.2006H47.8258L47.4508 59.8256C46.8258 59.2037 46.7445 58.2224 47.2539 57.5037L48.6321 55.5662C48.3133 54.9443 48.0446 54.2975 47.8258 53.6318L45.4852 53.2349C44.6196 53.0912 43.9821 52.3443 43.9789 51.4631V48.0444C43.9789 47.1662 44.6133 46.4131 45.4821 46.2693L47.8227 45.8756C47.9415 45.5068 48.0758 45.1443 48.2321 44.7881H31.8793L31.8786 60.2006ZM1.92577 56.635C1.92577 57.5818 2.30077 58.4881 2.97265 59.1568C3.64141 59.8255 4.55081 60.2006 5.49449 60.2006H30.0601V44.791H1.92569L1.92577 56.635ZM5.49449 2.11015H12.0851V28.2318L1.92593 28.2349V5.67888C1.92593 4.732 2.30093 3.82264 2.96969 3.15392C3.64157 2.48517 4.54769 2.11015 5.49449 2.11015ZM60.0193 5.67575V28.235H49.8505V2.11015H56.4505H56.4474C58.4161 2.11328 60.013 3.71016 60.0161 5.67887L60.0193 5.67575ZM49.8505 30.0542H60.0161V33.8042H58.2286C57.3473 33.801 56.5942 34.4385 56.4473 35.3073L56.0598 37.6479C55.391 37.8604 54.7442 38.1292 54.1223 38.4479L52.191 37.0729C51.4722 36.5604 50.4879 36.6416 49.8628 37.2666L49.8503 37.2823L49.8505 30.0542ZM37.8721 15.3166H48.0313V39.0982L47.4501 39.6794C46.8251 40.3013 46.7407 41.2825 47.2532 42.0012L47.9469 42.9668H37.8717L37.8721 15.3166ZM13.9033 15.3166H24.0689V42.9662H13.9033V15.3166ZM12.0815 42.9662H1.92545V30.0534H12.0815V42.9662ZM24.0687 13.5006H13.9031V2.11015H24.0687V13.5006ZM36.0527 28.2382H25.8871V2.11015H36.0527V28.2382ZM48.0311 13.5006H37.8719V2.11015H48.0311V13.5006ZM25.8871 42.9662V30.0534H36.0527V42.9662H25.8871ZM74.3871 46.2662L72.0464 45.8724C71.8339 45.2068 71.5652 44.5599 71.2464 43.9349L72.6246 41.9974V42.0005C73.134 41.2817 73.0496 40.3005 72.4277 39.6786L70.009 37.2662C69.3871 36.6412 68.4027 36.5568 67.6871 37.0724L65.7559 38.4506V38.4474C65.134 38.1287 64.4871 37.8599 63.8183 37.6474L63.4246 35.3068V35.3037C63.2934 34.5037 62.6402 33.8912 61.8308 33.8099V5.67873C61.8277 2.70369 59.4184 0.291206 56.4402 0.288086H5.49299C2.51795 0.288086 0.105469 2.70057 0.105469 5.67873V56.6347C0.105469 59.6129 2.51795 62.0254 5.49299 62.0254H49.6458L49.8645 62.2472H49.8614C50.4833 62.8722 51.4708 62.9566 52.1896 62.4441L54.1209 61.0659C54.7427 61.3847 55.3896 61.6535 56.0584 61.8659L56.4459 64.2066V64.2097C56.5928 65.0784 57.3459 65.7128 58.2272 65.7128H61.649C62.5303 65.7128 63.2865 65.0753 63.4303 64.2066L63.8178 61.866L63.8209 61.8628C64.4865 61.6472 65.1334 61.3816 65.7553 61.0628L67.6866 62.441C68.4053 62.9504 69.3866 62.8691 70.0084 62.2441L72.4272 59.8285V59.8254C73.0522 59.2066 73.1334 58.2254 72.624 57.5067L71.2459 55.5692H71.249C71.5646 54.9473 71.8334 54.3004 72.0459 53.6316L74.3865 53.2348V53.2379C75.2552 53.0941 75.8927 52.3441 75.8927 51.4628V48.0441C75.8959 47.1628 75.2552 46.4097 74.3834 46.2691L74.3871 46.2662Z" fill="black"/>
</svg>
